# This file uses centimeters as units for non-parametric coordinates.

mtllib NaveManeira.mtl
g default
v 4.013168 0.293787 -5.991653
v 2.777199 0.006502 -5.991653
v 0.991172 0.872195 -5.991653
v -0.991170 0.872195 -5.991653
v -2.777197 0.006501 -5.991653
v -4.013167 0.293787 -5.991653
v -4.454280 0.183050 -5.991653
v -4.013168 0.072312 -5.991653
v -2.777199 -0.853922 -5.991653
v -0.991171 -1.296585 -5.991653
v 0.991170 -1.296585 -5.991653
v 2.777198 -0.853922 -5.991653
v 4.013168 0.072312 -5.991653
v 4.454280 0.183050 -5.991653
v 6.718779 -0.006810 -4.791653
v 2.668851 0.525301 -4.791653
v 0.655986 1.115947 -4.791653
v -0.655983 1.115948 -4.791653
v -2.668849 0.525300 -4.791653
v -6.718778 -0.006810 -4.791653
v -7.457280 -0.391481 -4.791653
v -6.718779 -0.519369 -4.791653
v -4.649541 -0.272335 -4.791653
v -0.855700 -1.902506 -4.791653
v 0.855697 -1.902506 -4.791653
v 4.649540 -0.272335 -4.791653
v 6.718779 -0.519369 -4.791653
v 7.457281 -0.391481 -4.791653
v 7.816882 0.032273 -2.586021
v 3.105043 0.595727 -2.586021
v 0.763200 1.339119 -2.586021
v -0.763196 1.339120 -2.586021
v -3.105041 0.595727 -2.586021
v -7.816882 0.032274 -2.586021
v -8.676088 -0.391481 -2.586021
v -7.816883 -0.558453 -2.586021
v -5.409453 -0.342762 -2.586021
v -0.995554 -2.125678 -2.586021
v 0.995551 -2.125678 -2.586021
v 5.409451 -0.342762 -2.586021
v 7.816882 -0.558453 -2.586021
v 8.676088 -0.391481 -2.586021
v 7.816882 0.032273 -0.080631
v 3.105043 0.595727 -0.080631
v 0.763200 1.339119 -0.080631
v -0.763196 1.339120 -0.080631
v -3.105041 0.595727 -0.080631
v -7.816882 0.032274 -0.080631
v -8.676088 -0.391481 -0.080631
v -7.816883 -0.558453 -0.080631
v -5.409453 -0.342762 -0.080631
v -0.995554 -2.125678 -0.080631
v 0.995551 -2.125678 -0.080631
v 5.409451 -0.342762 -0.080631
v 7.816882 -0.558453 -0.080631
v 8.676088 -0.391481 -0.080631
v 1.801938 0.104513 1.702519
v 1.246980 0.721027 1.702519
v 0.445042 1.063167 1.702519
v -0.445041 1.063167 1.702519
v -1.246979 0.721028 1.702519
v -1.801937 0.104514 1.702519
v -2.000000 -0.030992 1.702519
v -1.801938 -0.055230 1.702519
v -1.246980 -0.958929 1.702519
v -0.445042 -2.150265 1.702519
v 0.445042 -2.150265 1.702519
v 1.246979 -0.958929 1.702519
v 1.801938 -0.055230 1.702519
v 2.000000 -0.030992 1.702519
v 1.352944 0.630499 3.503333
v 0.936266 0.903443 3.503333
v 0.334150 1.184042 3.503333
v -0.334149 1.184042 3.503333
v -0.936266 0.903444 3.503333
v -1.352943 0.630500 3.503333
v -1.501654 0.000000 3.503333
v -1.352944 -0.630499 3.503333
v -0.936266 -1.136121 3.503333
v -0.334150 -1.416720 3.503333
v 0.334149 -1.416720 3.503333
v 0.936266 -1.136121 3.503333
v 1.352944 -0.630500 3.503333
v 1.501654 -0.000000 3.503333
v 1.512344 0.710180 4.703334
v 1.046574 0.839557 4.703334
v 0.373518 1.696359 4.703334
v -0.373518 1.696360 4.703334
v -1.046574 0.839557 4.703334
v -1.512343 0.710181 4.703334
v -1.678575 0.000000 4.703334
v -1.512344 -0.710180 4.703334
v -1.046574 -1.279701 4.703334
v -0.373518 -1.595762 4.703334
v 0.373518 -1.595762 4.703334
v 1.046574 -1.279701 4.703334
v 1.512344 -0.710181 4.703334
v 1.678575 -0.000000 4.703334
v 1.801938 0.656510 5.903333
v 1.246980 0.810495 5.903333
v 0.445042 1.629843 5.903333
v -0.445041 1.629843 5.903333
v -1.246979 0.810495 5.903333
v -1.801937 0.656511 5.903333
v -2.000000 0.000000 5.903333
v -1.801938 -0.867767 5.903333
v -1.246980 -1.563663 5.903333
v -0.445042 -1.660169 5.903333
v 0.445042 -1.660170 5.903333
v 1.246979 -1.563663 5.903333
v 1.801938 -0.867768 5.903333
v 2.000000 0.000000 5.903333
v 1.597063 0.595157 7.103333
v 1.105202 0.699941 7.103333
v 0.394442 1.491985 7.103333
v -0.394442 1.491986 7.103333
v -1.105202 0.699942 7.103333
v -1.597063 0.595158 7.103333
v -1.772606 0.000000 7.103333
v -1.597063 -0.806415 7.103333
v -1.105202 -1.453110 7.103333
v -0.394442 -1.631042 7.103333
v 0.394442 -1.631042 7.103333
v 1.105202 -1.453110 7.103333
v 1.597063 -0.806415 7.103333
v 1.772607 -0.000000 7.103333
v 1.318741 0.424045 8.677847
v 0.912597 0.391607 8.677847
v 0.325702 0.747452 8.677847
v -0.325702 0.747452 8.677847
v -0.912597 0.391607 8.677847
v -1.318741 0.424045 8.677847
v -1.463692 0.000000 8.677847
v -1.318741 -0.635302 8.677847
v -0.912597 -1.144775 8.677847
v -0.325702 -1.427511 8.677847
v 0.325702 -1.427511 8.677847
v 0.912597 -1.144775 8.677847
v 1.318741 -0.635302 8.677847
v 1.463692 -0.000000 8.677847
v 0.814027 0.047906 10.470697
v 0.563325 0.204238 10.470697
v 0.201048 0.290996 10.470697
v -0.201048 0.290996 10.470697
v -0.563324 0.204238 10.470697
v -0.814027 0.047907 10.470697
v -0.903502 -0.147037 10.470697
v -0.814027 -0.341980 10.470697
v -0.563324 -0.498313 10.470697
v -0.201048 -0.585071 10.470697
v 0.201048 -0.585071 10.470697
v 0.563324 -0.498313 10.470697
v 0.814027 -0.341980 10.470697
v 0.903502 -0.147037 10.470697
v 0.032787 -0.717015 -5.991653
v -0.010746 -0.220067 10.779885
vt 0.038690 0.448945
vt 0.042590 0.464482
vt 0.062827 0.570257
vt 0.049278 0.544245
vt 0.074293 0.306435
vt 0.046491 0.448945
vt 0.067332 0.544245
vt 0.062827 0.613187
vt 0.047901 0.582923
vt 0.048809 0.405411
vt 0.030535 0.401594
vt 0.079115 0.405411
vt 0.058630 0.471360
vt 0.068708 0.582923
vt 0.018317 0.342501
vt 0.009731 0.330695
vt 0.094707 0.342502
vt 0.116050 0.337730
vt 0.028055 0.416958
vt 0.001870 0.334472
vt 0.018317 0.272678
vt 0.009731 0.284484
vt 0.094707 0.272678
vt 0.116050 0.277449
vt 0.001870 0.280707
vt 0.048809 0.209768
vt 0.030535 0.213585
vt 0.079115 0.209768
vt 0.058630 0.143819
vt 0.123910 0.272523
vt 0.123910 0.342656
vt 0.028055 0.198221
vt 0.038690 0.166234
vt 0.049278 0.070934
vt 0.046491 0.166234
vt 0.067332 0.070934
vt 0.042590 0.150697
vt 0.062827 0.044922
vt 0.047901 0.032256
vt 0.062827 0.001992
vt 0.068708 0.032256
vt 0.667710 0.070934
vt 0.667710 0.213585
vt 0.590021 0.198221
vt 0.590021 0.032256
vt 0.501774 0.198221
vt 0.501774 0.032256
vt 0.590021 0.280707
vt 0.501774 0.280707
vt 0.590021 0.001992
vt 0.501774 0.001992
vt 0.590021 0.334472
vt 0.501774 0.334472
vt 0.438966 0.291914
vt 0.438966 0.263667
vt 0.590021 0.416958
vt 0.501774 0.416958
vt 0.438966 0.323265
vt 0.375536 0.295820
vt 0.375536 0.274612
vt 0.590021 0.582923
vt 0.501774 0.582923
vt 0.438966 0.351512
vt 0.375536 0.319359
vt 0.333269 0.294433
vt 0.333269 0.270726
vt 0.438966 0.244120
vt 0.375536 0.259935
vt 0.667710 0.401594
vt 0.667710 0.544245
vt 0.590021 0.613187
vt 0.501774 0.613187
vt 0.375536 0.340568
vt 0.291001 0.291914
vt 0.291001 0.263667
vt 0.333269 0.254320
vt 0.438966 0.371059
vt 0.375536 0.355244
vt 0.333269 0.344453
vt 0.333269 0.320746
vt 0.291001 0.323265
vt 0.248734 0.293696
vt 0.248734 0.268661
vt 0.291001 0.244120
vt 0.333269 0.360859
vt 0.291001 0.351512
vt 0.248734 0.321483
vt 0.248734 0.251336
vt 0.291001 0.371059
vt 0.248734 0.346518
vt 0.193275 0.275445
vt 0.193275 0.261140
vt 0.248734 0.363843
vt 0.130125 0.287748
vt 0.130125 0.278917
vt 0.193275 0.354040
vt 0.193275 0.339734
vt 0.193275 0.296117
vt 0.130125 0.300508
vt 0.130125 0.336262
vt 0.130125 0.327432
vt 0.193275 0.319062
vt 0.130125 0.314671
vt 0.673517 0.544245
vt 0.673517 0.471360
vt 0.751206 0.498127
vt 0.751206 0.582923
vt 0.673517 0.337730
vt 0.751206 0.342656
vt 0.839453 0.498127
vt 0.839453 0.582923
vt 0.839453 0.342656
vt 0.751206 0.613187
vt 0.839453 0.613187
vt 0.751206 0.272523
vt 0.839453 0.272523
vt 0.751206 0.117053
vt 0.839453 0.117053
vt 0.902261 0.291914
vt 0.902261 0.323265
vt 0.673517 0.277449
vt 0.673517 0.143819
vt 0.751206 0.032256
vt 0.839453 0.032256
vt 0.673517 0.070934
vt 0.751206 0.001992
vt 0.839453 0.001992
vt 0.789843 0.647198
vt 0.809689 0.813163
vt 0.814102 0.878609
vt 0.792387 0.859062
vt 0.774917 0.616934
vt 0.787614 0.852086
vt 0.769035 0.647198
vt 0.786760 0.859062
vt 0.788706 0.869639
vt 0.766498 0.874877
vt 0.863053 0.682381
vt 0.843207 0.848346
vt 0.845751 0.636481
vt 0.867467 0.616934
vt 0.828281 0.878609
vt 0.840979 0.643458
vt 0.822400 0.848346
vt 0.840125 0.636481
vt 0.819862 0.620667
vt 0.842070 0.625905
vt 0.743013 0.848346
vt 0.750610 0.763549
vt 0.728907 0.616934
vt 0.760738 0.636481
vt 0.936892 0.998008
vt 0.874092 0.842537
vt 0.873226 0.823147
vt 0.915189 0.851393
vt 0.899064 0.819241
vt 0.908948 0.840449
vt 0.873226 0.791795
vt 0.899064 0.795701
vt 0.915189 0.763549
vt 0.908948 0.774493
vt 0.874092 0.772405
vt 0.936892 0.616934
vt 0.713020 0.701731
vt 0.705423 0.616934
vt 0.723148 0.828798
vt 0.691317 0.848346
vt 0.243603 0.618321
vt 0.243603 0.641860
vt 0.225557 0.643247
vt 0.225558 0.616934
vt 0.652096 0.740649
vt 0.672156 0.724244
vt 0.682158 0.731302
vt 0.657646 0.750850
vt 0.649289 0.735035
vt 0.667098 0.720358
vt 0.683288 0.700536
vt 0.685557 0.703056
vt 0.627081 0.746504
vt 0.627081 0.757826
vt 0.676982 0.699150
vt 0.627081 0.740273
vt 0.602066 0.740649
vt 0.603957 0.750850
vt 0.676982 0.675610
vt 0.683288 0.674224
vt 0.604873 0.735035
vt 0.667099 0.654402
vt 0.672156 0.650517
vt 0.649289 0.639725
vt 0.652096 0.634111
vt 0.682158 0.643458
vt 0.685557 0.671704
vt 0.627081 0.634487
vt 0.627081 0.628256
vt 0.657646 0.623910
vt 0.604873 0.639725
vt 0.602066 0.634111
vt 0.627081 0.616934
vt 0.603957 0.623910
vt 0.455267 0.616934
vt 0.481580 0.616934
vt 0.484099 0.659202
vt 0.452748 0.659202
vt 0.482317 0.701469
vt 0.454530 0.701469
vt 0.512346 0.659202
vt 0.507352 0.701469
vt 0.479896 0.756928
vt 0.456951 0.756928
vt 0.424501 0.659202
vt 0.429495 0.701469
vt 0.500568 0.756928
vt 0.436279 0.756928
vt 0.390844 0.616934
vt 0.418742 0.641969
vt 0.392517 0.644390
vt 0.379983 0.623718
vt 0.418742 0.669756
vt 0.392517 0.667335
vt 0.390844 0.694791
vt 0.379983 0.688007
vt 0.544778 0.743633
vt 0.522000 0.726309
vt 0.532860 0.719524
vt 0.550805 0.733830
vt 0.542617 0.750850
vt 0.518106 0.731302
vt 0.555630 0.707222
vt 0.561137 0.716052
vt 0.573182 0.749816
vt 0.573182 0.738936
vt 0.573182 0.757826
vt 0.522901 0.698852
vt 0.552575 0.694462
vt 0.565431 0.687759
vt 0.568003 0.719204
vt 0.594146 0.743633
vt 0.588119 0.733830
vt 0.596307 0.750850
vt 0.522901 0.675908
vt 0.552575 0.680299
vt 0.574870 0.716052
vt 0.532860 0.655236
vt 0.555630 0.667538
vt 0.550805 0.640930
vt 0.561137 0.658708
vt 0.580376 0.707222
vt 0.522000 0.648452
vt 0.544778 0.631127
vt 0.573182 0.635824
vt 0.568003 0.655556
vt 0.583432 0.694462
vt 0.518106 0.643458
vt 0.542617 0.623910
vt 0.573182 0.624944
vt 0.588119 0.640930
vt 0.574870 0.658708
vt 0.583432 0.680299
vt 0.573182 0.616934
vt 0.594146 0.631127
vt 0.580376 0.667538
vt 0.596307 0.623910
vt 0.355697 0.680364
vt 0.350924 0.680364
vt 0.352015 0.616934
vt 0.374224 0.616934
vt 0.314673 0.616934
vt 0.334220 0.616934
vt 0.345164 0.680364
vt 0.330488 0.680364
vt 0.289366 0.616934
vt 0.308913 0.616934
vt 0.293098 0.680364
vt 0.278422 0.680364
vt 0.249362 0.616934
vt 0.254135 0.616934
vt 0.272662 0.680364
vt 0.250454 0.680364
vn 0.133478 0.958275 -0.252770
vn 0.180911 0.967047 -0.179140
vn 0.195021 0.972834 -0.124739
vn 0.201455 0.961879 -0.184944
vn 0.170712 0.961619 -0.214816
vn 0.157563 0.976206 -0.148984
vn -0.170712 0.961619 -0.214816
vn -0.157563 0.976206 -0.148984
vn -0.180911 0.967047 -0.179140
vn -0.195021 0.972835 -0.124739
vn -0.133478 0.958275 -0.252769
vn -0.201454 0.961879 -0.184944
vn -0.386797 0.228448 -0.893420
vn -0.671939 -0.305659 -0.674590
vn -0.174912 -0.855244 -0.487815
vn -0.068519 -0.984703 -0.160201
vn -0.273507 -0.913456 -0.301316
vn -0.172772 -0.974376 -0.144021
vn -0.210271 -0.918190 -0.335729
vn -0.194316 -0.960588 -0.198778
vn 0.210271 -0.918190 -0.335729
vn 0.194316 -0.960588 -0.198778
vn 0.273507 -0.913457 -0.301316
vn 0.172772 -0.974376 -0.144021
vn 0.174912 -0.855244 -0.487815
vn 0.068519 -0.984703 -0.160201
vn 0.386797 0.228445 -0.893421
vn 0.671938 -0.305661 -0.674589
vn 0.208806 0.977166 -0.039335
vn 0.269952 0.961111 -0.058235
vn 0.150746 0.987463 -0.046827
vn -0.150745 0.987463 -0.046827
vn -0.208806 0.977166 -0.039335
vn -0.269952 0.961111 -0.058235
vn -0.909931 -0.364660 -0.197608
vn -0.040299 -0.999019 -0.018337
vn -0.130711 -0.991124 -0.024263
vn -0.187937 -0.980673 -0.054405
vn 0.187937 -0.980673 -0.054405
vn 0.130711 -0.991124 -0.024263
vn 0.040299 -0.999019 -0.018337
vn 0.909931 -0.364660 -0.197607
vn 0.233991 0.967139 0.099450
vn 0.280707 0.950867 0.130598
vn 0.149470 0.985808 0.076425
vn -0.149470 0.985808 0.076425
vn -0.233991 0.967139 0.099450
vn -0.280707 0.950867 0.130598
vn -0.886822 -0.217269 0.407849
vn -0.079349 -0.987982 0.132650
vn -0.198672 -0.971890 0.126333
vn -0.163751 -0.985499 0.044459
vn 0.163751 -0.985499 0.044459
vn 0.198672 -0.971890 0.126333
vn 0.079349 -0.987982 0.132650
vn 0.886822 -0.217269 0.407849
vn 0.465930 0.880180 0.090508
vn 0.682259 0.700452 0.209500
vn 0.185408 0.981376 0.050256
vn -0.185407 0.981376 0.050256
vn -0.465930 0.880181 0.090507
vn -0.682259 0.700452 0.209500
vn -0.917121 -0.097514 0.386496
vn -0.732040 -0.637892 0.239188
vn -0.676993 -0.699675 0.228332
vn -0.282596 -0.940315 0.189599
vn 0.282596 -0.940315 0.189599
vn 0.676993 -0.699675 0.228332
vn 0.732040 -0.637892 0.239188
vn 0.917121 -0.097514 0.386497
vn 0.536970 0.841663 -0.057158
vn 0.762954 0.646326 -0.012796
vn 0.298125 0.945708 -0.129454
vn -0.298124 0.945708 -0.129454
vn -0.536970 0.841663 -0.057158
vn -0.762954 0.646326 -0.012796
vn -0.999793 -0.019090 0.006980
vn -0.873190 -0.487114 -0.016092
vn -0.708477 -0.705595 -0.013987
vn -0.331410 -0.943174 0.024276
vn 0.331410 -0.943174 0.024276
vn 0.708477 -0.705595 -0.013987
vn 0.873190 -0.487114 -0.016092
vn 0.999793 -0.019091 0.006980
vn 0.523424 0.849048 -0.071728
vn 0.668649 0.735561 -0.108896
vn 0.426586 0.898528 -0.103302
vn -0.426585 0.898529 -0.103302
vn -0.523424 0.849048 -0.071727
vn -0.668648 0.735562 -0.108896
vn -0.981520 0.010158 -0.191089
vn -0.880822 -0.430506 -0.197019
vn -0.559740 -0.808658 -0.181006
vn -0.162223 -0.978685 -0.125930
vn 0.162223 -0.978685 -0.125930
vn 0.559739 -0.808659 -0.181006
vn 0.880822 -0.430506 -0.197019
vn 0.981520 0.010158 -0.191089
vn 0.511476 0.858655 0.033227
vn 0.618856 0.785264 0.019427
vn 0.399972 0.914535 0.060405
vn -0.399971 0.914535 0.060405
vn -0.511476 0.858655 0.033227
vn -0.618856 0.785264 0.019427
vn -0.999433 0.030748 -0.013714
vn -0.900722 -0.433975 -0.019129
vn -0.492025 -0.870062 -0.030050
vn -0.099623 -0.994765 -0.022733
vn 0.099623 -0.994766 -0.022733
vn 0.492025 -0.870062 -0.030050
vn 0.900722 -0.433975 -0.019129
vn 0.999433 0.030748 -0.013714
vn 0.422563 0.890989 0.166070
vn 0.612902 0.769045 0.181440
vn 0.389088 0.895073 0.217841
vn -0.389088 0.895073 0.217841
vn -0.422563 0.890989 0.166070
vn -0.612902 0.769045 0.181440
vn -0.981014 0.038521 0.190075
vn -0.888227 -0.419927 0.186318
vn -0.516360 -0.842353 0.154317
vn -0.116274 -0.988796 0.093608
vn 0.116274 -0.988796 0.093608
vn 0.516360 -0.842353 0.154317
vn 0.888227 -0.419927 0.186318
vn 0.981014 0.038521 0.190075
vn 0.308702 0.926453 0.215378
vn 0.566247 0.788151 0.241212
vn 0.292016 0.910441 0.292956
vn -0.292016 0.910441 0.292956
vn -0.308702 0.926453 0.215379
vn -0.566247 0.788151 0.241212
vn -0.968524 0.036365 0.246248
vn -0.864912 -0.434122 0.251924
vn -0.550230 -0.790781 0.268165
vn -0.162521 -0.955796 0.245031
vn 0.162521 -0.955796 0.245031
vn 0.550230 -0.790781 0.268165
vn 0.864912 -0.434122 0.251924
vn 0.968524 0.036366 0.246248
vn 0.296410 0.932702 0.205446
vn 0.542401 0.793172 0.276911
vn 0.221069 0.946610 0.234646
vn -0.221068 0.946610 0.234646
vn -0.296410 0.932702 0.205446
vn -0.542401 0.793172 0.276911
vn -0.949473 0.028571 0.312546
vn -0.828232 -0.462382 0.316598
vn -0.524630 -0.766263 0.370951
vn -0.173390 -0.891902 0.417668
vn 0.173389 -0.891902 0.417668
vn 0.524630 -0.766263 0.370951
vn 0.828232 -0.462382 0.316598
vn 0.949473 0.028571 0.312546
vn 0.000000 0.000000 -1.000000
vn 0.000000 -0.000000 -1.000000
vn 0.000000 -0.000000 -1.000000
vn 0.000000 -0.000000 -1.000000
vn 0.000000 -0.000000 -1.000000
vn 0.000000 -0.000000 -1.000000
vn 0.000000 -0.000000 -1.000000
vn 0.000000 -0.000000 -1.000000
vn 0.000000 -0.000000 -1.000000
vn 0.000000 -0.000000 -1.000000
vn 0.000000 -0.000000 -1.000000
vn 0.000000 0.000000 -1.000000
vn 0.000000 -0.000000 -1.000000
vn 0.000000 -0.000000 -1.000000
vn 0.000000 -0.000000 -1.000000
vn 0.266322 0.253339 0.929996
vn 0.168577 0.421281 0.891125
vn -0.002172 -0.059215 0.998243
vn 0.056989 0.499396 0.864497
vn -0.057449 0.501030 0.863521
vn -0.170578 0.425478 0.888747
vn -0.271105 0.257459 0.927479
vn -0.327665 -0.005624 0.944777
vn -0.302889 -0.299135 0.904863
vn -0.203511 -0.518624 0.830429
vn -0.070293 -0.623167 0.778923
vn 0.069591 -0.620970 0.780739
vn 0.200872 -0.512958 0.834580
vn 0.297158 -0.293768 0.908514
vn 0.320745 -0.005376 0.947150
s 1
g textureBakeSet2 pCylinder1
usemtl psdFileTex2SG
f 1/33/1 2/26/2 16/27/3 15/34/4
f 2/26/2 3/21/5 17/22/6 16/27/3
f 3/21/5 4/15/7 18/16/8 17/22/6
f 4/15/7 5/10/9 19/11/10 18/16/8
f 5/10/9 6/1/11 20/4/12 19/11/10
f 6/1/11 7/2/13 21/3/14 20/4/12
f 7/2/13 8/6/15 22/7/16 21/3/14
f 8/6/15 9/12/17 23/13/18 22/7/16
f 9/12/17 10/17/19 24/18/20 23/13/18
f 10/17/19 11/23/21 25/24/22 24/18/20
f 11/23/21 12/28/23 26/29/24 25/24/22
f 12/28/23 13/35/25 27/36/26 26/29/24
f 13/35/25 14/37/27 28/38/28 27/36/26
f 14/37/27 1/33/1 15/34/4 28/38/28
f 15/42/4 16/43/3 30/44/29 29/45/30
f 16/27/3 17/22/6 31/25/31 30/32/29
f 17/22/6 18/16/8 32/20/32 31/25/31
f 18/16/8 19/11/10 33/19/33 32/20/32
f 19/69/10 20/70/12 34/61/34 33/56/33
f 20/4/12 21/3/14 35/8/35 34/9/34
f 21/3/14 22/7/16 36/14/36 35/8/35
f 22/104/16 23/105/18 37/106/37 36/107/36
f 23/105/18 24/108/20 38/109/38 37/106/37
f 24/18/20 25/24/22 39/30/39 38/31/38
f 25/121/22 26/122/24 40/117/40 39/115/39
f 26/122/24 27/125/26 41/123/41 40/117/40
f 27/36/26 28/38/28 42/40/42 41/41/41
f 28/38/28 15/34/4 29/39/30 42/40/42
f 29/45/30 30/44/29 44/46/43 43/47/44
f 30/44/29 31/48/31 45/49/45 44/46/43
f 31/48/31 32/52/32 46/53/46 45/49/45
f 32/52/32 33/56/33 47/57/47 46/53/46
f 33/56/33 34/61/34 48/62/48 47/57/47
f 34/61/34 35/71/35 49/72/49 48/62/48
f 35/113/35 36/107/36 50/111/50 49/114/49
f 36/107/36 37/106/37 51/110/51 50/111/50
f 37/106/37 38/109/38 52/112/52 51/110/51
f 38/109/38 39/115/39 53/116/53 52/112/52
f 39/115/39 40/117/40 54/118/54 53/116/53
f 40/117/40 41/123/41 55/124/55 54/118/54
f 41/123/41 42/126/42 56/127/56 55/124/55
f 42/50/42 29/45/30 43/47/44 56/51/56
f 43/128/44 44/129/43 58/130/57 57/131/58
f 44/46/43 45/49/45 59/54/59 58/55/57
f 45/49/45 46/53/46 60/58/60 59/54/59
f 46/53/46 47/57/47 61/63/61 60/58/60
f 47/138/47 48/139/48 62/140/62 61/141/61
f 48/139/48 49/142/49 63/143/63 62/140/62
f 49/142/49 50/144/50 64/145/64 63/143/63
f 50/148/50 51/149/51 65/150/65 64/151/64
f 51/152/51 52/153/52 66/154/66 65/155/65
f 52/112/52 53/116/53 67/119/67 66/120/66
f 53/162/53 54/163/54 68/160/68 67/158/67
f 54/164/54 55/165/55 69/166/69 68/167/68
f 55/134/55 56/132/56 70/133/70 69/135/69
f 56/132/56 43/128/44 57/131/58 70/133/70
f 57/67/58 58/55/57 72/60/71 71/68/72
f 58/55/57 59/54/59 73/59/73 72/60/71
f 59/54/59 60/58/60 74/64/74 73/59/73
f 60/58/60 61/63/61 75/73/75 74/64/74
f 61/63/61 62/77/62 76/78/76 75/73/75
f 62/265/62 63/266/63 77/267/77 76/268/76
f 63/143/63 64/145/64 78/146/78 77/147/77
f 64/269/64 65/270/65 79/271/79 78/272/78
f 65/155/65 66/154/66 80/156/80 79/157/79
f 66/154/66 67/158/67 81/159/81 80/156/80
f 67/158/67 68/160/68 82/161/82 81/159/81
f 68/273/68 69/274/69 83/275/83 82/276/82
f 69/135/69 70/133/70 84/136/84 83/137/83
f 70/277/70 57/278/58 71/279/72 84/280/84
f 71/68/72 72/60/71 86/66/85 85/76/86
f 72/60/71 73/59/73 87/65/87 86/66/85
f 73/168/73 74/169/74 88/170/88 87/171/87
f 74/64/74 75/73/75 89/79/89 88/80/88
f 75/73/75 76/78/76 90/85/90 89/79/89
f 76/188/76 77/183/77 91/180/91 90/184/90
f 77/183/77 78/176/78 92/172/92 91/180/91
f 78/176/78 79/177/79 93/173/93 92/172/92
f 79/177/79 80/182/80 94/178/94 93/173/93
f 80/182/80 81/186/81 95/187/95 94/178/94
f 81/186/81 82/189/82 96/190/96 95/187/95
f 82/189/82 83/191/83 97/192/97 96/190/96
f 83/191/83 84/195/84 98/196/98 97/192/97
f 84/195/84 71/198/72 85/199/86 98/196/98
f 85/76/86 86/66/85 100/75/99 99/84/100
f 86/66/85 87/65/87 101/74/101 100/75/99
f 87/65/87 88/80/88 102/81/102 101/74/101
f 88/80/88 89/79/89 103/86/103 102/81/102
f 89/79/89 90/85/90 104/89/104 103/86/103
f 90/184/90 91/180/91 105/181/105 104/185/104
f 91/180/91 92/172/92 106/175/106 105/181/105
f 92/172/92 93/173/93 107/174/107 106/175/106
f 93/173/93 94/178/94 108/179/108 107/174/107
f 94/202/94 95/203/95 109/204/109 108/205/108
f 95/187/95 96/190/96 110/193/110 109/194/109
f 96/190/96 97/192/97 111/197/111 110/193/110
f 97/192/97 98/196/98 112/200/112 111/197/111
f 98/196/98 85/199/86 99/201/100 112/200/112
f 99/84/100 100/75/99 114/83/113 113/88/114
f 100/75/99 101/74/101 115/82/115 114/83/113
f 101/74/101 102/81/102 116/87/116 115/82/115
f 102/81/102 103/86/103 117/90/117 116/87/116
f 103/86/103 104/89/104 118/93/118 117/90/117
f 104/241/104 105/234/105 119/232/119 118/239/118
f 105/234/105 106/228/106 120/224/120 119/232/119
f 106/228/106 107/229/107 121/225/121 120/224/120
f 107/212/107 108/205/108 122/207/122 121/213/121
f 108/205/108 109/204/109 123/206/123 122/207/122
f 109/204/109 110/208/110 124/209/124 123/206/123
f 110/255/110 111/256/111 125/251/125 124/250/124
f 111/256/111 112/261/112 126/257/126 125/251/125
f 112/261/112 99/264/100 113/262/114 126/257/126
f 113/88/114 114/83/113 128/91/127 127/92/128
f 114/216/113 115/217/115 129/218/129 128/219/127
f 115/217/115 116/220/116 130/221/130 129/218/129
f 116/220/116 117/222/117 131/223/131 130/221/130
f 117/90/117 118/93/118 132/96/132 131/97/131
f 118/239/118 119/232/119 133/233/133 132/240/132
f 119/232/119 120/224/120 134/227/134 133/233/133
f 120/224/120 121/225/121 135/226/135 134/227/134
f 121/213/121 122/207/122 136/211/136 135/215/135
f 122/207/122 123/206/123 137/210/137 136/211/136
f 123/206/123 124/209/124 138/214/138 137/210/137
f 124/250/124 125/251/125 139/247/139 138/245/138
f 125/251/125 126/257/126 140/252/140 139/247/139
f 126/257/126 113/262/114 127/258/128 140/252/140
f 127/92/128 128/91/127 142/94/141 141/95/142
f 128/91/127 129/98/129 143/99/143 142/94/141
f 129/98/129 130/102/130 144/103/144 143/99/143
f 130/102/130 131/97/131 145/101/145 144/103/144
f 131/97/131 132/96/132 146/100/146 145/101/145
f 132/240/132 133/233/133 147/238/147 146/244/146
f 133/233/133 134/227/134 148/231/148 147/238/147
f 134/227/134 135/226/135 149/230/149 148/231/148
f 135/226/135 136/235/136 150/236/150 149/230/149
f 136/235/136 137/242/137 151/243/151 150/236/150
f 137/242/137 138/245/138 152/246/152 151/243/151
f 138/245/138 139/247/139 153/248/153 152/246/152
f 139/247/139 140/252/140 154/253/154 153/248/153
f 140/252/140 127/258/128 141/259/142 154/253/154
s 2
f 2/26/155 1/33/156 155/5/157
f 3/21/158 2/26/155 155/5/157
f 4/15/159 3/21/158 155/5/157
f 5/10/160 4/15/159 155/5/157
f 6/1/161 5/10/160 155/5/157
f 7/2/162 6/1/161 155/5/157
f 8/6/163 7/2/162 155/5/157
f 9/12/164 8/6/163 155/5/157
f 10/17/165 9/12/164 155/5/157
f 11/23/166 10/17/165 155/5/157
f 12/28/167 11/23/166 155/5/157
f 13/35/168 12/28/167 155/5/157
f 14/37/169 13/35/168 155/5/157
f 1/33/156 14/37/169 155/5/157
s 3
f 141/259/170 142/263/171 156/237/172
f 142/263/171 143/260/173 156/237/172
f 143/260/173 144/254/174 156/237/172
f 144/254/174 145/249/175 156/237/172
f 145/249/175 146/244/176 156/237/172
f 146/244/176 147/238/177 156/237/172
f 147/238/177 148/231/178 156/237/172
f 148/231/178 149/230/179 156/237/172
f 149/230/179 150/236/180 156/237/172
f 150/236/180 151/243/181 156/237/172
f 151/243/181 152/246/182 156/237/172
f 152/246/182 153/248/183 156/237/172
f 153/248/183 154/253/184 156/237/172
f 154/253/184 141/259/170 156/237/172
