# This file uses centimeters as units for non-parametric coordinates.

mtllib Ateroid4.mtl
g default
v 4.788856 -11.519404 -1.727395
v 1.614862 -10.720962 -2.773109
v -0.164212 -10.720962 -2.773109
v -1.603514 -10.720962 -1.727394
v -0.418586 -10.921984 -0.035394
v -1.419669 -11.410570 1.656607
v -0.164212 -12.355381 2.702321
v 3.349555 -9.883814 2.702321
v 4.788856 -9.883814 1.656606
v 5.338621 -9.883814 -0.035394
v 5.288349 -10.196254 -4.241080
v 2.550634 -10.196254 -6.230145
v -0.573023 -9.866934 -6.230145
v -3.310737 -9.866934 -4.241079
v -2.621759 -9.305044 -1.022702
v -1.969698 -9.324022 3.182982
v 0.768017 -9.324022 5.172048
v 4.152018 -9.324022 5.172048
v 6.889733 -9.324022 3.182982
v 7.935446 -10.196254 -0.035394
v 8.556997 -8.135402 -4.465109
v 4.788856 -8.135402 -7.202824
v -2.263476 -7.319024 -7.202824
v -3.376619 -7.714246 -4.465108
v -5.076264 -7.519744 -0.035394
v -6.291961 -7.808420 4.394321
v -2.523819 -7.366083 7.132036
v 4.788856 -7.519744 7.132036
v 8.556997 -9.155335 4.394320
v 8.394917 -8.135402 -1.022703
v 3.831666 -1.814894 -5.962083
v -0.598051 -1.814894 -6.983715
v -3.807761 -4.286461 -9.448523
v -8.399967 -0.942660 -6.230145
v -4.852460 -0.942660 0.544614
v -7.362411 -1.840883 6.365805
v -2.932695 -5.077510 9.584181
v 2.542734 -0.942660 9.584181
v 10.457668 -0.942660 5.172048
v 10.749701 -0.942660 -0.035394
v 4.275102 1.935943 -5.510824
v -0.382577 1.063709 -8.894825
v -4.808277 -1.407858 -8.894825
v -7.731262 0.043777 -5.510823
v -9.510336 1.415768 -0.035394
v -6.971653 5.513633 1.873136
v -2.313975 5.513633 5.257138
v 2.683623 0.043777 8.824037
v 10.826519 0.043777 5.440034
v 9.604243 0.043777 -1.022703
v 5.371066 7.172175 -6.230146
v 0.941350 7.172175 -9.448523
v -4.534079 2.372188 -7.859033
v -8.857538 2.372188 -3.096178
v -11.305109 4.814546 1.158362
v -6.602803 6.378598 2.798905
v -2.173087 6.378598 6.017282
v 2.542734 8.044408 9.584181
v 6.972449 8.044408 6.365805
v 8.664450 8.044408 -0.035394
v 5.901999 10.641233 -4.465109
v 2.133858 9.769001 -7.202824
v -2.523820 8.749068 -7.202824
v -6.291961 5.519206 -4.465108
v -7.731262 10.121058 -0.035394
v -6.291961 11.756649 4.394321
v -2.523819 10.384657 7.132036
v 2.133858 8.749068 7.132036
v 5.901999 9.826653 4.394320
v 7.341301 9.826653 -0.035394
v 4.234735 10.758156 -3.253771
v 1.497020 10.758156 -5.242836
v -3.488365 9.895864 -6.230145
v -4.624696 12.702087 -2.060014
v -5.670410 12.702087 1.158362
v -4.624696 12.702087 4.376739
v -1.886981 12.702087 6.365805
v 1.497020 12.702087 6.365805
v 3.726449 12.702087 4.376738
v 5.280448 10.552806 -0.035394
v 2.133858 13.153002 -1.727395
v 0.694557 13.153002 -2.773109
v -1.084518 12.133068 -2.773109
v -2.523819 13.939536 -1.727394
v -3.073584 14.285986 -0.035394
v -2.523819 13.505062 1.656607
v -1.084518 13.768661 2.702321
v 0.694557 14.662940 2.702321
v 2.133858 13.942360 1.656606
v 2.683623 13.210653 -0.035394
v 0.725325 -11.681074 -0.035394
v -0.194981 13.771800 1.158362
vt 0.121977 0.552548
vt 0.101494 0.614718
vt 0.033779 0.596389
vt 0.072740 0.542764
vt 0.155119 0.632142
vt 0.101494 0.649566
vt 0.033779 0.657573
vt 0.014727 0.552548
vt 0.068352 0.478739
vt 0.155119 0.541779
vt 0.155119 0.490914
vt 0.121977 0.677758
vt 0.072740 0.711198
vt 0.135780 0.481914
vt 0.188261 0.552548
vt 0.218159 0.511397
vt 0.155119 0.654548
vt 0.135780 0.697703
vt 0.241886 0.478739
vt 0.208744 0.580740
vt 0.257120 0.565022
vt 0.188261 0.674157
vt 0.218159 0.684931
vt 0.155119 0.745781
vt 0.068352 0.712489
vt 0.295511 0.552548
vt 0.208744 0.649566
vt 0.257120 0.631306
vt 0.241886 0.769593
vt 0.295511 0.695785
vt 0.273389 0.474752
vt 0.212205 0.468302
vt 0.179093 0.418394
vt 0.317230 0.434385
vt 0.158580 0.468302
vt 0.157289 0.426136
vt 0.148844 0.358994
vt 0.211714 0.310582
vt 0.129247 0.302609
vt 0.215935 0.254198
vt 0.391039 0.434385
vt 0.298481 0.310582
vt 0.058894 0.293497
vt 0.071992 0.274175
vt 0.134617 0.228568
vt 0.241867 0.134548
vt 0.307167 0.237113
vt 0.049932 0.228568
vt 0.173993 0.103660
vt 0.265226 0.083683
vt 0.328635 0.134548
vt 0.433989 0.293497
vt 0.411552 0.274175
vt 0.100185 0.166925
vt 0.155100 0.081197
vt 0.252752 0.064307
vt 0.339034 0.066598
vt 0.393144 0.117463
vt 0.001990 0.180728
vt 0.071992 0.076787
vt 0.132842 0.026231
vt 0.202186 0.037376
vt 0.237033 0.017398
vt 0.112359 0.026231
vt 0.173993 0.001992
vt 0.306377 0.064307
vt 0.265226 0.017398
vt 0.303484 0.753930
vt 0.307294 0.667163
vt 0.436123 0.655802
vt 0.436123 0.788502
vt 0.301639 0.580395
vt 0.418529 0.541779
vt 0.482318 0.667163
vt 0.455444 0.774413
vt 0.311225 0.807555
vt 0.370626 0.851542
vt 0.310304 0.526770
vt 0.355131 0.478739
vt 0.562585 0.629779
vt 0.548892 0.643780
vt 0.501052 0.727116
vt 0.603760 0.719905
vt 0.600751 0.576668
vt 0.729579 0.620664
vt 0.648588 0.727914
vt 0.568713 0.502859
vt 0.729579 0.465630
vt 0.748901 0.617904
vt 0.856042 0.715795
vt 0.748901 0.458405
vt 0.905614 0.620664
vt 0.872985 0.713035
vt 0.711985 0.814681
vt 0.856042 0.807027
vt 0.905614 0.533897
vt 0.919416 0.628673
vt 0.951453 0.719905
vt 0.872985 0.799802
vt 0.996846 0.641147
vt 0.996846 0.707431
vt 0.978327 0.793714
vt 0.775775 0.856754
vt 0.842349 0.891909
vt 0.940523 0.554864
vt 0.996846 0.597478
vt 0.996846 0.761056
vt 0.946290 0.821906
vt 0.478805 0.001992
vt 0.584911 0.021970
vt 0.565572 0.162858
vt 0.463571 0.162858
vt 0.652339 0.021970
vt 0.681661 0.145773
vt 0.584911 0.182180
vt 0.458322 0.182180
vt 0.565572 0.338892
vt 0.440188 0.338892
vt 0.565572 0.373802
vt 0.478805 0.373802
vt 0.686911 0.321807
vt 0.652339 0.389758
vt 0.565572 0.388025
vt 0.479149 0.430125
vt 0.565572 0.440086
vt 0.532430 0.454418
vt 0.628612 0.392048
vt 0.598714 0.438957
vt 0.317769 0.855529
vt 0.404536 0.918569
vt 0.383569 0.957186
vt 0.309760 0.903561
vt 0.275349 0.942296
vt 0.201540 0.995921
vt 0.189066 0.957530
vt 0.242691 0.918569
vt 0.303541 0.855529
vt 0.263174 0.855529
vt 0.103991 0.957641
vt 0.040951 0.937158
vt 0.094231 0.896007
vt 0.127373 0.906776
vt 0.127373 0.998008
vt 0.040606 0.969816
vt 0.001990 0.883533
vt 0.073748 0.867815
vt 0.103991 0.850391
vt 0.167031 0.937158
vt 0.160515 0.896007
vt 0.001990 0.817249
vt 0.073748 0.832967
vt 0.040951 0.773580
vt 0.094231 0.804775
vt 0.180998 0.867815
vt 0.180998 0.832967
vt 0.127373 0.794006
vt 0.160515 0.804775
vt 0.429494 0.924388
vt 0.410988 0.903905
vt 0.470365 0.855529
vt 0.470365 0.894490
vn 0.020275 -0.956466 -0.291139
vn 0.020275 -0.956466 -0.291139
vn 0.020275 -0.956466 -0.291139
vn 0.020275 -0.956466 -0.291139
vn -0.065666 -0.977603 -0.199949
vn -0.065666 -0.977603 -0.199949
vn -0.065666 -0.977603 -0.199949
vn -0.065666 -0.977603 -0.199949
vn -0.159114 -0.962664 -0.219001
vn -0.159114 -0.962664 -0.219001
vn -0.159114 -0.962664 -0.219001
vn -0.159114 -0.962664 -0.219001
vn -0.691100 -0.652111 0.311662
vn -0.691100 -0.652111 0.311662
vn -0.691100 -0.652111 0.311662
vn -0.691100 -0.652111 0.311662
vn -0.805447 -0.584515 -0.097970
vn -0.805447 -0.584515 -0.097970
vn -0.805447 -0.584515 -0.097970
vn -0.805447 -0.584515 -0.097970
vn -0.603271 -0.462351 0.649843
vn -0.603271 -0.462351 0.649843
vn -0.603271 -0.462351 0.649843
vn -0.603271 -0.462351 0.649843
vn 0.293559 -0.819280 0.492548
vn 0.293559 -0.819280 0.492548
vn 0.293559 -0.819280 0.492548
vn 0.293559 -0.819280 0.492548
vn 0.129932 -0.975262 0.178836
vn 0.129932 -0.975262 0.178836
vn 0.129932 -0.975262 0.178836
vn 0.129932 -0.975262 0.178836
vn -0.004509 -0.984829 0.173470
vn -0.004509 -0.984829 0.173470
vn -0.004509 -0.984829 0.173470
vn -0.004509 -0.984829 0.173470
vn 0.356923 -0.931872 0.064963
vn 0.356923 -0.931872 0.064963
vn 0.356923 -0.931872 0.064963
vn 0.356923 -0.931872 0.064963
vn 0.411448 -0.714146 -0.566310
vn 0.411448 -0.714146 -0.566310
vn 0.411448 -0.714146 -0.566310
vn 0.411448 -0.714146 -0.566310
vn -0.043250 -0.384145 -0.922259
vn -0.043250 -0.384145 -0.922259
vn -0.043250 -0.384145 -0.922259
vn -0.043250 -0.384145 -0.922259
vn -0.690143 -0.409729 -0.596510
vn -0.690143 -0.409729 -0.596510
vn -0.690143 -0.409729 -0.596510
vn -0.690143 -0.409729 -0.596510
vn -0.845964 -0.529923 -0.059382
vn -0.845964 -0.529923 -0.059382
vn -0.845964 -0.529923 -0.059382
vn -0.845964 -0.529923 -0.059382
vn -0.453076 -0.889365 -0.061258
vn -0.453076 -0.889365 -0.061258
vn -0.453076 -0.889365 -0.061258
vn -0.453076 -0.889365 -0.061258
vn -0.234342 -0.883666 0.405239
vn -0.234342 -0.883666 0.405239
vn -0.234342 -0.883666 0.405239
vn -0.234342 -0.883666 0.405239
vn -0.010414 -0.724951 0.688722
vn -0.010414 -0.724951 0.688722
vn -0.010414 -0.724951 0.688722
vn -0.010414 -0.724951 0.688722
vn 0.115388 -0.878855 0.462925
vn 0.115388 -0.878855 0.462925
vn 0.115388 -0.878855 0.462925
vn 0.115388 -0.878855 0.462925
vn 0.719106 -0.692152 0.061745
vn 0.719106 -0.692152 0.061745
vn 0.719106 -0.692152 0.061745
vn 0.719106 -0.692152 0.061745
vn 0.689151 -0.689152 -0.223919
vn 0.689151 -0.689152 -0.223919
vn 0.689151 -0.689152 -0.223919
vn 0.689151 -0.689152 -0.223919
vn 0.405183 0.234810 -0.883567
vn 0.405183 0.234810 -0.883567
vn 0.405183 0.234810 -0.883567
vn 0.405183 0.234810 -0.883567
vn 0.238524 -0.033536 -0.970557
vn 0.238524 -0.033536 -0.970557
vn 0.238524 -0.033536 -0.970557
vn 0.238524 -0.033536 -0.970557
vn -0.698292 -0.616547 -0.363672
vn -0.698292 -0.616547 -0.363672
vn -0.698292 -0.616547 -0.363672
vn -0.698292 -0.616547 -0.363672
vn -0.933396 -0.321443 0.159517
vn -0.933396 -0.321443 0.159517
vn -0.933396 -0.321443 0.159517
vn -0.933396 -0.321443 0.159517
vn -0.940054 0.005907 -0.340975
vn -0.940054 0.005907 -0.340975
vn -0.940054 0.005907 -0.340975
vn -0.940054 0.005907 -0.340975
vn -0.619805 -0.454016 0.640088
vn -0.619805 -0.454016 0.640088
vn -0.619805 -0.454016 0.640088
vn -0.619805 -0.454016 0.640088
vn 0.139191 -0.447099 0.883589
vn 0.139191 -0.447099 0.883589
vn 0.139191 -0.447099 0.883589
vn 0.139191 -0.447099 0.883589
vn 0.496160 -0.174166 0.850583
vn 0.496160 -0.174166 0.850583
vn 0.496160 -0.174166 0.850583
vn 0.496160 -0.174166 0.850583
vn 0.964212 -0.264784 -0.013625
vn 0.964212 -0.264784 -0.013625
vn 0.964212 -0.264784 -0.013625
vn 0.964212 -0.264784 -0.013625
vn 0.800177 0.118193 -0.588003
vn 0.800177 0.118193 -0.588003
vn 0.800177 0.118193 -0.588003
vn 0.800177 0.118193 -0.588003
vn 0.442209 -0.234583 -0.865691
vn 0.442209 -0.234583 -0.865691
vn 0.442209 -0.234583 -0.865691
vn 0.442209 -0.234583 -0.865691
vn 0.395228 -0.159402 -0.904647
vn 0.395228 -0.159402 -0.904647
vn 0.395228 -0.159402 -0.904647
vn 0.395228 -0.159402 -0.904647
vn -0.563940 0.214268 -0.797534
vn -0.563940 0.214268 -0.797534
vn -0.563940 0.214268 -0.797534
vn -0.563940 0.214268 -0.797534
vn -0.628918 -0.757378 0.175615
vn -0.628918 -0.757378 0.175615
vn -0.628918 -0.757378 0.175615
vn -0.628918 -0.757378 0.175615
vn -0.931445 -0.334980 0.142124
vn -0.931445 -0.334980 0.142124
vn -0.931445 -0.334980 0.142124
vn -0.931445 -0.334980 0.142124
vn -0.432231 0.417214 0.799443
vn -0.432231 0.417214 0.799443
vn -0.432231 0.417214 0.799443
vn -0.432231 0.417214 0.799443
vn -0.248536 0.403277 0.880680
vn -0.248536 0.403277 0.880680
vn -0.248536 0.403277 0.880680
vn -0.248536 0.403277 0.880680
vn 0.434058 0.110879 0.894036
vn 0.434058 0.110879 0.894036
vn 0.434058 0.110879 0.894036
vn 0.434058 0.110879 0.894036
vn 0.936885 0.341568 -0.074680
vn 0.936885 0.341568 -0.074680
vn 0.936885 0.341568 -0.074680
vn 0.936885 0.341568 -0.074680
vn 0.648266 0.009916 -0.761350
vn 0.648266 0.009916 -0.761350
vn 0.648266 0.009916 -0.761350
vn 0.648266 0.009916 -0.761350
vn 0.587600 -0.212935 -0.780631
vn 0.587600 -0.212935 -0.780631
vn 0.587600 -0.212935 -0.780631
vn 0.587600 -0.212935 -0.780631
vn -0.216713 0.082448 -0.972748
vn -0.216713 0.082448 -0.972748
vn -0.216713 0.082448 -0.972748
vn -0.216713 0.082448 -0.972748
vn -0.692192 0.279340 -0.665462
vn -0.692192 0.279340 -0.665462
vn -0.692192 0.279340 -0.665462
vn -0.692192 0.279340 -0.665462
vn -0.914606 -0.287063 -0.284765
vn -0.914606 -0.287063 -0.284765
vn -0.914606 -0.287063 -0.284765
vn -0.914606 -0.287063 -0.284765
vn -0.071045 -0.462964 0.883525
vn -0.071045 -0.462964 0.883525
vn -0.071045 -0.462964 0.883525
vn -0.071045 -0.462964 0.883525
vn -0.500625 -0.524006 0.689051
vn -0.500625 -0.524006 0.689051
vn -0.500625 -0.524006 0.689051
vn -0.500625 -0.524006 0.689051
vn -0.619924 -0.132619 0.773373
vn -0.619924 -0.132619 0.773373
vn -0.619924 -0.132619 0.773373
vn -0.619924 -0.132619 0.773373
vn 0.464810 0.022790 0.885117
vn 0.464810 0.022790 0.885117
vn 0.464810 0.022790 0.885117
vn 0.464810 0.022790 0.885117
vn 0.958489 0.282972 0.034999
vn 0.958489 0.282972 0.034999
vn 0.958489 0.282972 0.034999
vn 0.958489 0.282972 0.034999
vn 0.778313 0.003529 -0.627867
vn 0.778313 0.003529 -0.627867
vn 0.778313 0.003529 -0.627867
vn 0.778313 0.003529 -0.627867
vn 0.522393 0.362041 -0.772031
vn 0.522393 0.362041 -0.772031
vn 0.522393 0.362041 -0.772031
vn 0.522393 0.362041 -0.772031
vn -0.362470 0.401374 -0.841139
vn -0.362470 0.401374 -0.841139
vn -0.362470 0.401374 -0.841139
vn -0.362470 0.401374 -0.841139
vn -0.710259 0.293363 -0.639899
vn -0.710259 0.293363 -0.639899
vn -0.710259 0.293363 -0.639899
vn -0.710259 0.293363 -0.639899
vn -0.722246 0.342355 -0.600961
vn -0.722246 0.342355 -0.600961
vn -0.722246 0.342355 -0.600961
vn -0.722246 0.342355 -0.600961
vn -0.743221 0.246843 0.621845
vn -0.743221 0.246843 0.621845
vn -0.743221 0.246843 0.621845
vn -0.743221 0.246843 0.621845
vn -0.597082 -0.224918 0.770003
vn -0.597082 -0.224918 0.770003
vn -0.597082 -0.224918 0.770003
vn -0.597082 -0.224918 0.770003
vn -0.348783 0.203487 0.914846
vn -0.348783 0.203487 0.914846
vn -0.348783 0.203487 0.914846
vn -0.348783 0.203487 0.914846
vn 0.196408 0.881313 0.429781
vn 0.196408 0.881313 0.429781
vn 0.196408 0.881313 0.429781
vn 0.196408 0.881313 0.429781
vn 0.750622 0.624078 0.217011
vn 0.750622 0.624078 0.217011
vn 0.750622 0.624078 0.217011
vn 0.750622 0.624078 0.217011
vn 0.880258 0.265074 -0.393551
vn 0.880258 0.265074 -0.393551
vn 0.880258 0.265074 -0.393551
vn 0.880258 0.265074 -0.393551
vn 0.074762 0.957220 -0.279536
vn 0.074762 0.957220 -0.279536
vn 0.074762 0.957220 -0.279536
vn 0.074762 0.957220 -0.279536
vn -0.089248 0.781282 -0.617765
vn -0.089248 0.781282 -0.617765
vn -0.089248 0.781282 -0.617765
vn -0.089248 0.781282 -0.617765
vn -0.789365 0.286727 -0.542854
vn -0.789365 0.286727 -0.542854
vn -0.789365 0.286727 -0.542854
vn -0.789365 0.286727 -0.542854
vn -0.721048 0.464737 -0.513915
vn -0.721048 0.464737 -0.513915
vn -0.721048 0.464737 -0.513915
vn -0.721048 0.464737 -0.513915
vn -0.697552 0.712678 0.074238
vn -0.697552 0.712678 0.074238
vn -0.697552 0.712678 0.074238
vn -0.697552 0.712678 0.074238
vn -0.441437 0.491985 0.750389
vn -0.441437 0.491985 0.750389
vn -0.441437 0.491985 0.750389
vn -0.441437 0.491985 0.750389
vn 0.048230 0.237131 0.970280
vn 0.048230 0.237131 0.970280
vn 0.048230 0.237131 0.970280
vn 0.048230 0.237131 0.970280
vn 0.551657 0.315819 0.771967
vn 0.551657 0.315819 0.771967
vn 0.551657 0.315819 0.771967
vn 0.551657 0.315819 0.771967
vn 0.647259 0.761511 0.034013
vn 0.647259 0.761511 0.034013
vn 0.647259 0.761511 0.034013
vn 0.647259 0.761511 0.034013
vn 0.236478 0.970215 0.052549
vn 0.236478 0.970215 0.052549
vn 0.236478 0.970215 0.052549
vn 0.236478 0.970215 0.052549
vn 0.409181 0.717907 -0.563189
vn 0.409181 0.717907 -0.563189
vn 0.409181 0.717907 -0.563189
vn 0.409181 0.717907 -0.563189
vn -0.136411 0.798093 -0.586890
vn -0.136411 0.798093 -0.586890
vn -0.136411 0.798093 -0.586890
vn -0.136411 0.798093 -0.586890
vn -0.014407 0.745472 -0.666381
vn -0.014407 0.745472 -0.666381
vn -0.014407 0.745472 -0.666381
vn -0.014407 0.745472 -0.666381
vn -0.531700 0.815030 -0.230264
vn -0.531700 0.815030 -0.230264
vn -0.531700 0.815030 -0.230264
vn -0.531700 0.815030 -0.230264
vn -0.275338 0.931521 0.237607
vn -0.275338 0.931521 0.237607
vn -0.275338 0.931521 0.237607
vn -0.275338 0.931521 0.237607
vn -0.199314 0.961172 0.190845
vn -0.199314 0.961172 0.190845
vn -0.199314 0.961172 0.190845
vn -0.199314 0.961172 0.190845
vn -0.158067 0.912595 0.377075
vn -0.158067 0.912595 0.377075
vn -0.158067 0.912595 0.377075
vn -0.158067 0.912595 0.377075
vn 0.405359 0.869024 0.283695
vn 0.405359 0.869024 0.283695
vn 0.405359 0.869024 0.283695
vn 0.405359 0.869024 0.283695
vn 0.708201 0.700677 -0.086623
vn 0.708201 0.700677 -0.086623
vn 0.708201 0.700677 -0.086623
vn 0.708201 0.700677 -0.086623
vn 0.686118 0.698909 -0.201911
vn 0.686118 0.698909 -0.201911
vn 0.686118 0.698909 -0.201911
vn 0.686118 0.698909 -0.201911
vn -0.113700 -0.925419 -0.361486
vn -0.113700 -0.925419 -0.361486
vn -0.113700 -0.925419 -0.361486
vn 0.000000 -0.943653 -0.330938
vn 0.000000 -0.943653 -0.330938
vn 0.000000 -0.943653 -0.330938
vn -0.194520 -0.943653 -0.267734
vn -0.194520 -0.943653 -0.267734
vn -0.194520 -0.943653 -0.267734
vn -0.531297 -0.800638 0.276951
vn -0.531297 -0.800638 0.276951
vn -0.531297 -0.800638 0.276951
vn -0.480834 -0.724593 -0.493725
vn -0.480834 -0.724593 -0.493725
vn -0.480834 -0.724593 -0.493725
vn -0.372889 -0.865544 -0.334345
vn -0.372889 -0.865544 -0.334345
vn -0.372889 -0.865544 -0.334345
vn 0.575264 -0.817839 -0.014522
vn 0.575264 -0.817839 -0.014522
vn 0.575264 -0.817839 -0.014522
vn 0.253634 -0.902109 0.349098
vn 0.253634 -0.902109 0.349098
vn 0.253634 -0.902109 0.349098
vn 0.360509 -0.925372 0.117136
vn 0.360509 -0.925372 0.117136
vn 0.360509 -0.925372 0.117136
vn 0.285848 -0.733728 0.616388
vn 0.285848 -0.733728 0.616388
vn 0.285848 -0.733728 0.616388
vn 0.096868 0.986327 -0.133327
vn 0.096868 0.986327 -0.133327
vn 0.096868 0.986327 -0.133327
vn -0.482613 0.841824 -0.241696
vn -0.482613 0.841824 -0.241696
vn -0.482613 0.841824 -0.241696
vn 0.573846 0.701677 -0.422315
vn 0.573846 0.701677 -0.422315
vn 0.573846 0.701677 -0.422315
vn 0.224449 0.966441 -0.124956
vn 0.224449 0.966441 -0.124956
vn 0.224449 0.966441 -0.124956
vn -0.013381 0.906218 0.422600
vn -0.013381 0.906218 0.422600
vn -0.013381 0.906218 0.422600
vn -0.128719 0.989053 -0.072150
vn -0.128719 0.989053 -0.072150
vn -0.128719 0.989053 -0.072150
vn -0.434989 0.865365 -0.248855
vn -0.434989 0.865365 -0.248855
vn -0.434989 0.865365 -0.248855
vn 0.048864 0.852610 -0.520259
vn 0.048864 0.852610 -0.520259
vn 0.048864 0.852610 -0.520259
vn 0.016581 0.919676 -0.392328
vn 0.016581 0.919676 -0.392328
vn 0.016581 0.919676 -0.392328
vn 0.156790 0.984013 -0.084473
vn 0.156790 0.984013 -0.084473
vn 0.156790 0.984013 -0.084473
s off
g pSphere1
usemtl phongE1SG
f 1/1/1 2/2/2 12/3/3 11/4/4
f 2/2/5 3/6/6 13/7/7 12/3/8
f 3/6/9 4/12/10 14/13/11 13/7/12
f 4/12/13 5/17/14 15/18/15 14/13/16
f 5/17/17 6/22/18 16/23/19 15/18/20
f 6/158/21 7/159/22 17/160/23 16/161/24
f 7/27/25 8/20/26 18/21/27 17/28/28
f 8/20/29 9/15/30 19/16/31 18/21/32
f 9/15/33 10/10/34 20/11/35 19/16/36
f 10/10/37 1/1/38 11/4/39 20/11/40
f 11/4/41 12/3/42 22/8/43 21/9/44
f 12/31/45 13/32/46 23/33/47 22/34/48
f 13/32/49 14/35/50 24/36/51 23/33/52
f 14/13/53 15/18/54 25/24/55 24/25/56
f 15/18/57 16/23/58 26/29/59 25/24/60
f 16/23/61 17/28/62 27/30/63 26/29/64
f 17/28/65 18/21/66 28/26/67 27/30/68
f 18/21/69 19/16/70 29/19/71 28/26/72
f 19/16/73 20/11/74 30/14/75 29/19/76
f 20/11/77 11/4/78 21/9/79 30/14/80
f 21/41/81 22/34/82 32/38/83 31/42/84
f 22/34/85 23/33/86 33/37/87 32/38/88
f 23/76/89 24/68/90 34/71/91 33/77/92
f 24/68/93 25/69/94 35/70/95 34/71/96
f 25/69/97 26/72/98 36/73/99 35/70/100
f 26/72/101 27/78/102 37/79/103 36/73/104
f 27/83/105 28/84/106 38/85/107 37/86/108
f 28/84/109 29/87/110 39/88/111 38/85/112
f 29/109/113 30/110/114 40/111/115 39/112/116
f 30/110/117 21/113/118 31/114/119 40/111/120
f 31/42/121 32/38/122 42/40/123 41/47/124
f 32/38/125 33/37/126 43/39/127 42/40/128
f 33/37/129 34/43/130 44/44/131 43/39/132
f 34/71/133 35/70/134 45/74/135 44/75/136
f 35/70/137 36/73/138 46/80/139 45/74/140
f 36/94/141 37/86/142 47/90/143 46/95/144
f 37/86/145 38/85/146 48/89/147 47/90/148
f 38/85/149 39/88/150 49/91/151 48/89/152
f 39/112/153 40/111/154 50/115/155 49/116/156
f 40/52/157 31/42/158 41/47/159 50/53/160
f 41/47/161 42/40/162 52/46/163 51/51/164
f 42/40/165 43/39/166 53/45/167 52/46/168
f 43/39/169 44/44/170 54/48/171 53/45/172
f 44/75/173 45/74/174 55/81/175 54/82/176
f 45/103/177 46/95/178 56/99/179 55/104/180
f 46/95/181 47/90/182 57/93/183 56/99/184
f 47/90/185 48/89/186 58/92/187 57/93/188
f 48/89/189 49/91/190 59/96/191 58/92/192
f 49/116/193 50/115/194 60/117/195 59/118/196
f 50/53/197 41/47/198 51/51/199 60/58/200
f 51/51/201 52/46/202 62/50/203 61/57/204
f 52/46/205 53/45/206 63/49/207 62/50/208
f 53/45/209 54/48/210 64/54/211 63/49/212
f 54/48/213 55/59/214 65/60/215 64/54/216
f 55/104/217 56/99/218 66/102/219 65/108/220
f 56/99/221 57/93/222 67/98/223 66/102/224
f 57/93/225 58/92/226 68/97/227 67/98/228
f 58/129/229 59/130/230 69/131/231 68/132/232
f 59/118/233 60/117/234 70/119/235 69/120/236
f 60/117/237 51/121/238 61/122/239 70/119/240
f 61/133/241 62/134/242 72/135/243 71/136/244
f 62/50/245 63/49/246 73/55/247 72/56/248
f 63/49/249 64/54/250 74/61/251 73/55/252
f 64/54/253 65/60/254 75/64/255 74/61/256
f 65/143/257 66/144/258 76/140/259 75/139/260
f 66/102/261 67/98/262 77/101/263 76/107/264
f 67/98/265 68/97/266 78/100/267 77/101/268
f 68/97/269 69/105/270 79/106/271 78/100/272
f 69/120/273 70/119/274 80/123/275 79/124/276
f 70/137/277 61/133/278 71/136/279 80/138/280
f 71/66/281 72/56/282 82/63/283 81/67/284
f 72/56/285 73/55/286 83/62/287 82/63/288
f 73/55/289 74/61/290 84/65/291 83/62/292
f 74/148/293 75/139/294 85/142/295 84/149/296
f 75/139/297 76/140/298 86/141/299 85/142/300
f 76/140/301 77/145/302 87/146/303 86/141/304
f 77/145/305 78/150/306 88/151/307 87/146/308
f 78/150/309 79/152/310 89/153/311 88/151/312
f 79/124/313 80/123/314 90/125/315 89/126/316
f 80/123/317 71/127/318 81/128/319 90/125/320
f 2/2/321 1/1/322 91/5/323
f 3/6/324 2/2/325 91/5/326
f 4/12/327 3/6/328 91/5/329
f 5/17/330 4/12/331 91/5/332
f 6/22/333 5/17/334 91/5/335
f 7/27/336 6/22/337 91/5/338
f 8/20/339 7/27/340 91/5/341
f 9/15/342 8/20/343 91/5/344
f 10/10/345 9/15/346 91/5/347
f 1/1/348 10/10/349 91/5/350
f 81/157/351 82/155/352 92/147/353
f 82/155/354 83/154/355 92/147/356
f 83/154/357 84/149/358 92/147/359
f 84/149/360 85/142/361 92/147/362
f 85/142/363 86/141/364 92/147/365
f 86/141/366 87/146/367 92/147/368
f 87/146/369 88/151/370 92/147/371
f 88/151/372 89/153/373 92/147/374
f 89/153/375 90/156/376 92/147/377
f 90/156/378 81/157/379 92/147/380
