# This file uses centimeters as units for non-parametric coordinates.

mtllib Asteroid2.mtl
g default
v 1.530309 -5.151431 -1.111835
v 0.584526 -4.076664 -1.798986
v -0.584526 -4.076664 -1.798986
v -1.530309 -4.076664 -1.111834
v -1.891566 -4.076664 0.000000
v -1.530309 -4.076664 1.111835
v -0.584526 -4.076664 1.798986
v 0.584526 -4.076664 1.798986
v 1.530309 -4.076664 1.111835
v 1.891566 -4.076664 0.000000
v 1.858532 -4.281973 -2.763608
v 0.059546 -4.281973 -4.070648
v -0.853161 -2.441475 -4.070648
v -2.652146 -2.441475 -2.763608
v -3.339298 -1.868319 -0.648773
v -2.910821 -3.708818 2.114835
v -1.111835 -3.708818 3.421875
v 1.111835 -3.708818 3.421875
v 2.910821 -3.708818 2.114835
v 3.597972 -4.281973 0.000000
v 4.006401 -2.927762 -2.910821
v 1.530308 -2.927762 -4.709807
v -0.219346 -1.087263 -4.709806
v -2.695438 -1.087263 -2.910820
v -4.952184 -2.523206 0.000000
v -4.006401 0.531325 2.910821
v -1.530309 -1.621653 4.709807
v 1.530309 -2.523206 4.709807
v 4.006401 -3.597972 2.910820
v 3.899895 -2.927762 -0.648773
v 3.657518 -1.221355 -4.070648
v 0.746697 -1.221355 -6.185483
v -2.851275 -1.221355 -6.185483
v -5.762095 -0.648200 -4.070647
v -6.873930 -0.648200 -0.648773
v -4.709807 -1.238434 4.206307
v -1.798986 -1.238434 6.321142
v 1.798986 -0.648200 6.321142
v 4.709807 -0.648200 3.421875
v 5.821641 -0.648200 0.000000
v 4.952184 1.243366 -3.597972
v 1.891565 0.670210 -5.821641
v -1.891566 0.670210 -5.821641
v -4.952184 0.000000 -3.597972
v -6.121236 0.901552 0.000000
v -4.952184 1.976319 3.597972
v -1.891566 1.976319 5.821641
v 1.891566 0.000000 5.821641
v 4.952184 0.000000 3.597972
v 5.068947 0.000000 -0.648773
v 3.657518 4.684159 -4.070648
v 0.746697 4.684159 -6.185483
v -2.851275 1.530028 -5.141010
v -5.762095 1.530028 -3.026175
v -5.821641 3.134932 0.784432
v -4.709807 2.544698 4.206307
v -1.798986 2.544698 6.321142
v 1.798986 5.257314 6.321142
v 4.709807 5.257314 4.206306
v 5.821641 5.257314 0.000000
v 4.006401 6.963721 -2.910821
v 1.530308 6.390565 -4.709807
v -1.530309 5.720355 -4.709806
v -4.006401 3.597972 -2.910820
v -4.952184 6.621907 0.000000
v -4.006401 7.696673 2.910821
v -1.530309 6.795121 4.709807
v 1.530309 5.720355 4.709807
v 4.006401 6.428448 2.910820
v 4.952184 6.428448 0.000000
v 2.910820 7.040551 -2.114835
v 1.111834 7.040551 -3.421875
v -2.164124 8.317932 -4.070648
v -2.910821 8.317932 -1.330403
v -3.597972 8.317932 0.784432
v -2.910821 8.317932 2.899267
v -1.111835 8.317932 4.206306
v 1.111835 8.317932 4.206306
v 2.576820 8.317932 2.899267
v 3.597972 6.905613 0.000000
v 1.530309 8.614235 -1.111835
v 0.584526 8.614235 -1.798986
v -0.584526 7.944024 -1.798986
v -1.530309 7.944024 -1.111834
v -1.891566 9.358732 0.000000
v -1.530309 8.845577 1.111835
v -0.584526 9.018791 1.798986
v 0.584526 9.606433 1.798986
v 1.530309 9.132933 1.111835
v 1.891566 8.652117 0.000000
v 0.000000 -4.742932 0.000000
v 0.000000 9.020855 0.784432
vt 0.670642 0.162803
vt 0.640665 0.141023
vt 0.624025 0.069022
vt 0.681045 0.110449
vt 0.622138 0.198043
vt 0.603611 0.141023
vt 0.595097 0.069022
vt 0.670642 0.048764
vt 0.749122 0.105783
vt 0.682092 0.198043
vt 0.736177 0.198043
vt 0.573634 0.162803
vt 0.538077 0.110449
vt 0.745746 0.177480
vt 0.670642 0.233283
vt 0.714397 0.265073
vt 0.562184 0.198043
vt 0.516298 0.177480
vt 0.749122 0.290302
vt 0.640665 0.255062
vt 0.657378 0.306500
vt 0.573634 0.233283
vt 0.529879 0.265073
vt 0.465177 0.198043
vt 0.536705 0.105783
vt 0.670642 0.347322
vt 0.603611 0.255062
vt 0.586898 0.306500
vt 0.495154 0.290302
vt 0.404267 0.177480
vt 0.439507 0.069022
vt 0.573634 0.347322
vt 0.472859 0.331363
vt 0.615186 0.048764
vt 0.531766 0.001992
vt 0.679157 0.398393
vt 0.565119 0.398393
vt 0.645805 0.001992
vt 0.468625 0.762025
vt 0.410290 0.790954
vt 0.367368 0.770865
vt 0.425703 0.715409
vt 0.410290 0.847973
vt 0.367368 0.849345
vt 0.109977 0.001992
vt 0.222799 0.023235
vt 0.202236 0.095486
vt 0.093779 0.095486
vt 0.294496 0.023235
vt 0.331257 0.077320
vt 0.222799 0.116031
vt 0.088197 0.116031
vt 0.052957 0.036057
vt 0.001886 0.095486
vt 0.351515 0.023235
vt 0.398287 0.077320
vt 0.316275 0.155440
vt 0.202236 0.282663
vt 0.068916 0.282663
vt 0.017718 0.116031
vt 0.386755 0.137273
vt 0.331257 0.264497
vt 0.202236 0.319782
vt 0.109977 0.319782
vt 0.001886 0.282663
vt 0.398287 0.264497
vt 0.294496 0.336748
vt 0.202236 0.334906
vt 0.110343 0.379670
vt 0.351515 0.318582
vt 0.202236 0.390262
vt 0.166996 0.405502
vt 0.052957 0.297339
vt 0.068916 0.379670
vt 0.269267 0.339183
vt 0.237476 0.389062
vt 0.407013 0.711631
vt 0.292974 0.711631
vt 0.323392 0.651677
vt 0.443300 0.651677
vt 0.200715 0.693464
vt 0.226385 0.672920
vt 0.292974 0.624425
vt 0.407013 0.524454
vt 0.200715 0.624425
vt 0.334842 0.491611
vt 0.431850 0.470369
vt 0.256362 0.558881
vt 0.314754 0.409280
vt 0.418586 0.449767
vt 0.291087 0.409280
vt 0.226385 0.463036
vt 0.269307 0.409280
vt 0.660561 0.623085
vt 0.641853 0.469202
vt 0.743746 0.488483
vt 0.709681 0.602522
vt 0.641853 0.402172
vt 0.743746 0.418003
vt 0.761761 0.469202
vt 0.780469 0.577659
vt 0.660561 0.731543
vt 0.681106 0.716561
vt 0.761761 0.402172
vt 0.925054 0.510263
vt 0.890989 0.602522
vt 0.729601 0.698438
vt 0.896479 0.453243
vt 0.944745 0.510629
vt 0.944745 0.577659
vt 0.795145 0.694781
vt 0.519072 0.402172
vt 0.633111 0.420879
vt 0.636045 0.441424
vt 0.516138 0.504064
vt 0.633111 0.608056
vt 0.519072 0.522079
vt 0.624595 0.622733
vt 0.527588 0.656798
vt 0.611332 0.705064
vt 0.540852 0.705064
vt 0.449108 0.685373
vt 0.483832 0.705064
vt 0.484735 0.708842
vt 0.576994 0.775872
vt 0.554700 0.816933
vt 0.476219 0.759914
vt 0.242909 0.940989
vt 0.164428 0.998008
vt 0.151164 0.957187
vt 0.208184 0.915760
vt 0.134451 0.905749
vt 0.164428 0.883969
vt 0.272885 0.848729
vt 0.229963 0.848729
vt 0.047332 0.977750
vt 0.097398 0.905749
vt 0.115925 0.823866
vt 0.023665 0.890897
vt 0.067421 0.883969
vt 0.175878 0.848729
vt 0.001886 0.823866
vt 0.055971 0.848729
vt 0.164428 0.813489
vt 0.023665 0.756836
vt 0.067421 0.813489
vt 0.134451 0.791710
vt 0.080685 0.715409
vt 0.097398 0.791710
vt 0.151164 0.715409
vt 0.197598 0.756836
vt 0.278811 0.715409
vt 0.320238 0.715409
vt 0.361059 0.781562
vt 0.304040 0.849802
vn -0.265547 -0.952678 -0.147950
vn -0.265547 -0.952678 -0.147950
vn -0.265547 -0.952678 -0.147950
vn -0.265547 -0.952678 -0.147950
vn -0.657636 -0.743841 -0.119229
vn -0.657636 -0.743841 -0.119229
vn -0.657636 -0.743841 -0.119229
vn -0.657636 -0.743841 -0.119229
vn -0.372526 -0.773514 -0.512738
vn -0.372526 -0.773514 -0.512738
vn -0.372526 -0.773514 -0.512738
vn -0.372526 -0.773514 -0.512738
vn -0.780094 -0.608539 -0.145373
vn -0.780094 -0.608539 -0.145373
vn -0.780094 -0.608539 -0.145373
vn -0.780094 -0.608539 -0.145373
vn -0.673312 -0.711587 -0.200735
vn -0.673312 -0.711587 -0.200735
vn -0.673312 -0.711587 -0.200735
vn -0.673312 -0.711587 -0.200735
vn -0.129932 -0.975262 0.178837
vn -0.129932 -0.975262 0.178837
vn -0.129932 -0.975262 0.178837
vn -0.129932 -0.975262 0.178837
vn 0.000000 -0.975262 0.221054
vn 0.000000 -0.975262 0.221054
vn 0.000000 -0.975262 0.221054
vn 0.000000 -0.975262 0.221054
vn 0.129932 -0.975262 0.178836
vn 0.129932 -0.975262 0.178836
vn 0.129932 -0.975262 0.178836
vn 0.129932 -0.975262 0.178836
vn -0.004509 -0.984829 0.173471
vn -0.004509 -0.984829 0.173471
vn -0.004509 -0.984829 0.173471
vn -0.004509 -0.984829 0.173471
vn 0.356923 -0.931872 0.064963
vn 0.356923 -0.931872 0.064963
vn 0.356923 -0.931872 0.064963
vn 0.356923 -0.931872 0.064963
vn 0.411448 -0.714146 -0.566310
vn 0.411448 -0.714146 -0.566310
vn 0.411448 -0.714146 -0.566310
vn 0.411448 -0.714146 -0.566310
vn -0.293259 -0.212106 -0.932207
vn -0.293259 -0.212106 -0.932207
vn -0.293259 -0.212106 -0.932207
vn -0.293259 -0.212106 -0.932207
vn -0.584466 -0.106133 -0.804448
vn -0.584466 -0.106133 -0.804448
vn -0.584466 -0.106133 -0.804448
vn -0.584466 -0.106133 -0.804448
vn -0.456942 -0.792592 -0.403734
vn -0.456942 -0.792592 -0.403734
vn -0.456942 -0.792592 -0.403734
vn -0.456942 -0.792592 -0.403734
vn -0.695594 -0.649353 0.307390
vn -0.695594 -0.649353 0.307390
vn -0.695594 -0.649353 0.307390
vn -0.695594 -0.649353 0.307390
vn -0.660932 -0.372683 0.651365
vn -0.660932 -0.372683 0.651365
vn -0.660932 -0.372683 0.651365
vn -0.660932 -0.372683 0.651365
vn -0.104935 -0.615059 0.781467
vn -0.104935 -0.615059 0.781467
vn -0.104935 -0.615059 0.781467
vn -0.104935 -0.615059 0.781467
vn 0.115388 -0.878855 0.462924
vn 0.115388 -0.878855 0.462924
vn 0.115388 -0.878855 0.462924
vn 0.115388 -0.878855 0.462924
vn 0.719106 -0.692152 0.061745
vn 0.719106 -0.692152 0.061745
vn 0.719106 -0.692152 0.061745
vn 0.719106 -0.692152 0.061745
vn 0.689152 -0.689152 -0.223919
vn 0.689152 -0.689152 -0.223919
vn 0.689152 -0.689152 -0.223919
vn 0.689152 -0.689152 -0.223919
vn 0.540038 -0.394799 -0.743298
vn 0.540038 -0.394799 -0.743298
vn 0.540038 -0.394799 -0.743298
vn 0.540038 -0.394799 -0.743298
vn -0.322838 -0.938015 -0.126108
vn -0.322838 -0.938015 -0.126108
vn -0.322838 -0.938015 -0.126108
vn -0.322838 -0.938015 -0.126108
vn -0.073810 -0.996287 0.044309
vn -0.073810 -0.996287 0.044309
vn -0.073810 -0.996287 0.044309
vn -0.073810 -0.996287 0.044309
vn -0.285057 -0.890887 -0.353641
vn -0.285057 -0.890887 -0.353641
vn -0.285057 -0.890887 -0.353641
vn -0.285057 -0.890887 -0.353641
vn 0.033150 -0.956389 0.290209
vn 0.033150 -0.956389 0.290209
vn 0.033150 -0.956389 0.290209
vn 0.033150 -0.956389 0.290209
vn -0.038323 -0.896875 -0.440621
vn -0.038323 -0.896875 -0.440621
vn -0.038323 -0.896875 -0.440621
vn -0.038323 -0.896875 -0.440621
vn -0.038262 -0.818351 0.573444
vn -0.038262 -0.818351 0.573444
vn -0.038262 -0.818351 0.573444
vn -0.038262 -0.818351 0.573444
vn 0.544369 -0.427235 0.721895
vn 0.544369 -0.427235 0.721895
vn 0.544369 -0.427235 0.721895
vn 0.544369 -0.427235 0.721895
vn 0.883148 -0.461720 0.082849
vn 0.883148 -0.461720 0.082849
vn 0.883148 -0.461720 0.082849
vn 0.883148 -0.461720 0.082849
vn 0.888157 -0.383022 -0.253913
vn 0.888157 -0.383022 -0.253913
vn 0.888157 -0.383022 -0.253913
vn 0.888157 -0.383022 -0.253913
vn 0.589486 -0.178850 -0.787730
vn 0.589486 -0.178850 -0.787730
vn 0.589486 -0.178850 -0.787730
vn 0.589486 -0.178850 -0.787730
vn 0.000000 0.188887 -0.981999
vn 0.000000 0.188887 -0.981999
vn 0.000000 0.188887 -0.981999
vn 0.000000 0.188887 -0.981999
vn -0.492173 0.561909 -0.664848
vn -0.492173 0.561909 -0.664848
vn -0.492173 0.561909 -0.664848
vn -0.492173 0.561909 -0.664848
vn -0.693608 0.650741 -0.308941
vn -0.693608 0.650741 -0.308941
vn -0.693608 0.650741 -0.308941
vn -0.693608 0.650741 -0.308941
vn -0.927835 0.096320 0.360339
vn -0.927835 0.096320 0.360339
vn -0.927835 0.096320 0.360339
vn -0.927835 0.096320 0.360339
vn -0.584338 0.108138 0.804273
vn -0.584338 0.108138 0.804273
vn -0.584338 0.108138 0.804273
vn -0.584338 0.108138 0.804273
vn 0.046965 0.250097 0.967081
vn 0.046965 0.250097 0.967081
vn 0.046965 0.250097 0.967081
vn 0.046965 0.250097 0.967081
vn 0.650981 0.021096 0.758801
vn 0.650981 0.021096 0.758801
vn 0.650981 0.021096 0.758801
vn 0.650981 0.021096 0.758801
vn 0.901662 0.407601 0.144456
vn 0.901662 0.407601 0.144456
vn 0.901662 0.407601 0.144456
vn 0.901662 0.407601 0.144456
vn 0.930333 -0.180047 -0.319473
vn 0.930333 -0.180047 -0.319473
vn 0.930333 -0.180047 -0.319473
vn 0.930333 -0.180047 -0.319473
vn 0.578717 0.098540 -0.809554
vn 0.578717 0.098540 -0.809554
vn 0.578717 0.098540 -0.809554
vn 0.578717 0.098540 -0.809554
vn -0.141473 0.003254 -0.989937
vn -0.141473 0.003254 -0.989937
vn -0.141473 0.003254 -0.989937
vn -0.141473 0.003254 -0.989937
vn -0.586989 -0.010408 -0.809528
vn -0.586989 -0.010408 -0.809528
vn -0.586989 -0.010408 -0.809528
vn -0.586989 -0.010408 -0.809528
vn -0.987189 -0.085261 -0.134865
vn -0.987189 -0.085261 -0.134865
vn -0.987189 -0.085261 -0.134865
vn -0.987189 -0.085261 -0.134865
vn -0.951222 0.031443 0.306900
vn -0.951222 0.031443 0.306900
vn -0.951222 0.031443 0.306900
vn -0.951222 0.031443 0.306900
vn -0.500626 -0.524005 0.689052
vn -0.500626 -0.524005 0.689052
vn -0.500626 -0.524005 0.689052
vn -0.500626 -0.524005 0.689052
vn 0.016858 -0.168991 0.985474
vn 0.016858 -0.168991 0.985474
vn 0.016858 -0.168991 0.985474
vn 0.016858 -0.168991 0.985474
vn 0.586489 -0.066368 0.807233
vn 0.586489 -0.066368 0.807233
vn 0.586489 -0.066368 0.807233
vn 0.586489 -0.066368 0.807233
vn 0.987504 -0.065087 0.143527
vn 0.987504 -0.065087 0.143527
vn 0.987504 -0.065087 0.143527
vn 0.987504 -0.065087 0.143527
vn 0.950840 0.065374 -0.302705
vn 0.950840 0.065374 -0.302705
vn 0.950840 0.065374 -0.302705
vn 0.950840 0.065374 -0.302705
vn 0.522393 0.362041 -0.772031
vn 0.522393 0.362041 -0.772031
vn 0.522393 0.362041 -0.772031
vn 0.522393 0.362041 -0.772031
vn -0.362470 0.401374 -0.841139
vn -0.362470 0.401374 -0.841139
vn -0.362470 0.401374 -0.841139
vn -0.362470 0.401374 -0.841139
vn -0.637059 0.372141 -0.675032
vn -0.637059 0.372141 -0.675032
vn -0.637059 0.372141 -0.675032
vn -0.637059 0.372141 -0.675032
vn -0.854797 0.358800 -0.374947
vn -0.854797 0.358800 -0.374947
vn -0.854797 0.358800 -0.374947
vn -0.854797 0.358800 -0.374947
vn -0.929049 0.237452 0.283698
vn -0.929049 0.237452 0.283698
vn -0.929049 0.237452 0.283698
vn -0.929049 0.237452 0.283698
vn -0.527265 0.300256 0.794882
vn -0.527265 0.300256 0.794882
vn -0.527265 0.300256 0.794882
vn -0.527265 0.300256 0.794882
vn -0.137511 0.559044 0.817656
vn -0.137511 0.559044 0.817656
vn -0.137511 0.559044 0.817656
vn -0.137511 0.559044 0.817656
vn 0.196408 0.881313 0.429781
vn 0.196408 0.881313 0.429781
vn 0.196408 0.881313 0.429781
vn 0.196408 0.881313 0.429781
vn 0.750621 0.624079 0.217011
vn 0.750621 0.624079 0.217011
vn 0.750621 0.624079 0.217011
vn 0.750621 0.624079 0.217011
vn 0.880258 0.265074 -0.393551
vn 0.880258 0.265074 -0.393551
vn 0.880258 0.265074 -0.393551
vn 0.880258 0.265074 -0.393551
vn 0.074761 0.957220 -0.279536
vn 0.074761 0.957220 -0.279536
vn 0.074761 0.957220 -0.279536
vn 0.074761 0.957220 -0.279536
vn 0.136711 0.537910 -0.831843
vn 0.136711 0.537910 -0.831843
vn 0.136711 0.537910 -0.831843
vn 0.136711 0.537910 -0.831843
vn -0.840769 0.205040 -0.501065
vn -0.840769 0.205040 -0.501065
vn -0.840769 0.205040 -0.501065
vn -0.840769 0.205040 -0.501065
vn -0.721048 0.464738 -0.513915
vn -0.721048 0.464738 -0.513915
vn -0.721048 0.464738 -0.513915
vn -0.721048 0.464738 -0.513915
vn -0.697551 0.712679 0.074237
vn -0.697551 0.712679 0.074237
vn -0.697551 0.712679 0.074237
vn -0.697551 0.712679 0.074237
vn -0.441437 0.491985 0.750389
vn -0.441437 0.491985 0.750389
vn -0.441437 0.491985 0.750389
vn -0.441437 0.491985 0.750389
vn 0.048230 0.237131 0.970280
vn 0.048230 0.237131 0.970280
vn 0.048230 0.237131 0.970280
vn 0.048230 0.237131 0.970280
vn 0.551657 0.315819 0.771967
vn 0.551657 0.315819 0.771967
vn 0.551657 0.315819 0.771967
vn 0.551657 0.315819 0.771967
vn 0.647259 0.761511 0.034013
vn 0.647259 0.761511 0.034013
vn 0.647259 0.761511 0.034013
vn 0.647259 0.761511 0.034013
vn 0.236478 0.970215 0.052549
vn 0.236478 0.970215 0.052549
vn 0.236478 0.970215 0.052549
vn 0.236478 0.970215 0.052549
vn 0.409181 0.717906 -0.563189
vn 0.409181 0.717906 -0.563189
vn 0.409181 0.717906 -0.563189
vn 0.409181 0.717906 -0.563189
vn 0.175140 0.926600 -0.332775
vn 0.175140 0.926600 -0.332775
vn 0.175140 0.926600 -0.332775
vn 0.175140 0.926600 -0.332775
vn 0.175050 0.980758 0.086442
vn 0.175050 0.980758 0.086442
vn 0.175050 0.980758 0.086442
vn 0.175050 0.980758 0.086442
vn -0.267155 0.847622 -0.458438
vn -0.267155 0.847622 -0.458438
vn -0.267155 0.847622 -0.458438
vn -0.267155 0.847622 -0.458438
vn -0.275338 0.931521 0.237607
vn -0.275338 0.931521 0.237607
vn -0.275338 0.931521 0.237607
vn -0.275338 0.931521 0.237607
vn -0.199314 0.961172 0.190845
vn -0.199314 0.961172 0.190845
vn -0.199314 0.961172 0.190845
vn -0.199314 0.961172 0.190845
vn -0.158067 0.912595 0.377075
vn -0.158067 0.912595 0.377075
vn -0.158067 0.912595 0.377075
vn -0.158067 0.912595 0.377075
vn 0.405358 0.869023 0.283695
vn 0.405358 0.869023 0.283695
vn 0.405358 0.869023 0.283695
vn 0.405358 0.869023 0.283695
vn 0.708201 0.700677 -0.086623
vn 0.708201 0.700677 -0.086623
vn 0.708201 0.700677 -0.086623
vn 0.708201 0.700677 -0.086623
vn 0.686118 0.698909 -0.201911
vn 0.686118 0.698909 -0.201911
vn 0.686118 0.698909 -0.201911
vn 0.686118 0.698909 -0.201911
vn -0.515823 -0.735148 -0.439868
vn -0.515823 -0.735148 -0.439868
vn -0.515823 -0.735148 -0.439868
vn -0.000000 -0.937753 -0.347304
vn -0.000000 -0.937753 -0.347304
vn -0.000000 -0.937753 -0.347304
vn -0.204140 -0.937753 -0.280975
vn -0.204140 -0.937753 -0.280975
vn -0.204140 -0.937753 -0.280975
vn -0.330305 -0.937753 -0.107323
vn -0.330305 -0.937753 -0.107323
vn -0.330305 -0.937753 -0.107323
vn -0.330305 -0.937753 0.107323
vn -0.330305 -0.937753 0.107323
vn -0.330305 -0.937753 0.107323
vn -0.204140 -0.937753 0.280975
vn -0.204140 -0.937753 0.280975
vn -0.204140 -0.937753 0.280975
vn 0.000000 -0.937753 0.347304
vn 0.000000 -0.937753 0.347304
vn 0.000000 -0.937753 0.347304
vn 0.204140 -0.937753 0.280975
vn 0.204140 -0.937753 0.280975
vn 0.204140 -0.937753 0.280975
vn 0.330305 -0.937753 0.107323
vn 0.330305 -0.937753 0.107323
vn 0.330305 -0.937753 0.107323
vn 0.258942 -0.735148 0.626503
vn 0.258942 -0.735148 0.626503
vn 0.258942 -0.735148 0.626503
vn 0.096868 0.986327 -0.133326
vn 0.096868 0.986327 -0.133326
vn 0.096868 0.986327 -0.133326
vn -0.482613 0.841824 -0.241697
vn -0.482613 0.841824 -0.241697
vn -0.482613 0.841824 -0.241697
vn -0.237842 0.914476 -0.327361
vn -0.237842 0.914476 -0.327361
vn -0.237842 0.914476 -0.327361
vn 0.391107 0.628362 -0.672455
vn 0.391107 0.628362 -0.672455
vn 0.391107 0.628362 -0.672455
vn -0.013382 0.906217 0.422602
vn -0.013382 0.906217 0.422602
vn -0.013382 0.906217 0.422602
vn -0.128720 0.989053 -0.072148
vn -0.128720 0.989053 -0.072148
vn -0.128720 0.989053 -0.072148
vn -0.434989 0.865365 -0.248855
vn -0.434989 0.865365 -0.248855
vn -0.434989 0.865365 -0.248855
vn 0.048863 0.852610 -0.520258
vn 0.048863 0.852610 -0.520258
vn 0.048863 0.852610 -0.520258
vn 0.016581 0.919676 -0.392329
vn 0.016581 0.919676 -0.392329
vn 0.016581 0.919676 -0.392329
vn 0.156791 0.984013 -0.084473
vn 0.156791 0.984013 -0.084473
vn 0.156791 0.984013 -0.084473
s off
g pSphere1
usemtl phongE1SG
f 1/1/1 2/2/2 12/3/3 11/4/4
f 2/2/5 3/6/6 13/7/7 12/3/8
f 3/6/9 4/12/10 14/13/11 13/7/12
f 4/12/13 5/17/14 15/18/15 14/13/16
f 5/17/17 6/22/18 16/23/19 15/18/20
f 6/22/21 7/27/22 17/28/23 16/23/24
f 7/27/25 8/20/26 18/21/27 17/28/28
f 8/20/29 9/15/30 19/16/31 18/21/32
f 9/15/33 10/10/34 20/11/35 19/16/36
f 10/10/37 1/1/38 11/4/39 20/11/40
f 11/4/41 12/3/42 22/8/43 21/9/44
f 12/39/45 13/40/46 23/41/47 22/42/48
f 13/40/49 14/43/50 24/44/51 23/41/52
f 14/13/53 15/18/54 25/24/55 24/25/56
f 15/18/57 16/23/58 26/29/59 25/24/60
f 16/152/61 17/153/62 27/154/63 26/155/64
f 17/28/65 18/21/66 28/26/67 27/32/68
f 18/21/69 19/16/70 29/19/71 28/26/72
f 19/16/73 20/11/74 30/14/75 29/19/76
f 20/11/77 11/4/78 21/9/79 30/14/80
f 21/49/81 22/55/82 32/56/83 31/50/84
f 22/8/85 23/34/86 33/35/87 32/38/88
f 23/34/89 24/25/90 34/31/91 33/35/92
f 24/25/93 25/24/94 35/30/95 34/31/96
f 25/24/97 26/29/98 36/33/99 35/30/100
f 26/29/101 27/32/102 37/37/103 36/33/104
f 27/32/105 28/26/106 38/36/107 37/37/108
f 28/53/109 29/45/110 39/48/111 38/54/112
f 29/45/113 30/46/114 40/47/115 39/48/116
f 30/46/117 21/49/118 31/50/119 40/47/120
f 31/50/121 32/56/122 42/61/123 41/57/124
f 32/77/125 33/78/126 43/79/127 42/80/128
f 33/78/129 34/81/130 44/82/131 43/79/132
f 34/102/133 35/94/134 45/97/135 44/103/136
f 35/94/137 36/95/138 46/96/139 45/97/140
f 36/95/141 37/98/142 47/99/143 46/96/144
f 37/112/145 38/113/146 48/114/147 47/115/148
f 38/54/149 39/48/150 49/52/151 48/60/152
f 39/48/153 40/47/154 50/51/155 49/52/156
f 40/47/157 31/50/158 41/57/159 50/51/160
f 41/57/161 42/61/162 52/66/163 51/62/164
f 42/80/165 43/79/166 53/83/167 52/84/168
f 43/79/169 44/82/170 54/85/171 53/83/172
f 44/103/173 45/97/174 55/101/175 54/107/176
f 45/97/177 46/96/178 56/100/179 55/101/180
f 46/96/181 47/99/182 57/104/183 56/100/184
f 47/115/185 48/114/186 58/116/187 57/117/188
f 48/60/189 49/52/190 59/59/191 58/65/192
f 49/52/193 50/51/194 60/58/195 59/59/196
f 50/51/197 41/57/198 51/62/199 60/58/200
f 51/62/201 52/66/202 62/70/203 61/67/204
f 52/84/205 53/83/206 63/86/207 62/87/208
f 53/83/209 54/85/210 64/88/211 63/86/212
f 54/107/213 55/101/214 65/106/215 64/111/216
f 55/101/217 56/100/218 66/105/219 65/106/220
f 56/100/221 57/104/222 67/108/223 66/105/224
f 57/117/225 58/116/226 68/118/227 67/119/228
f 58/124/229 59/125/230 69/126/231 68/127/232
f 59/59/233 60/58/234 70/63/235 69/64/236
f 60/58/237 51/62/238 61/67/239 70/63/240
f 61/128/241 62/129/242 72/130/243 71/131/244
f 62/87/245 63/86/246 73/89/247 72/90/248
f 63/86/249 64/88/250 74/91/251 73/89/252
f 64/88/253 65/92/254 75/93/255 74/91/256
f 65/106/257 66/105/258 76/109/259 75/110/260
f 66/122/261 67/119/262 77/121/263 76/123/264
f 67/119/265 68/118/266 78/120/267 77/121/268
f 68/73/269 69/64/270 79/69/271 78/74/272
f 69/64/273 70/63/274 80/68/275 79/69/276
f 70/134/277 61/128/278 71/131/279 80/135/280
f 71/131/281 72/130/282 82/132/283 81/133/284
f 72/130/285 73/136/286 83/137/287 82/132/288
f 73/136/289 74/139/290 84/140/291 83/137/292
f 74/139/293 75/142/294 85/143/295 84/140/296
f 75/142/297 76/145/298 86/146/299 85/143/300
f 76/145/301 77/148/302 87/149/303 86/146/304
f 77/148/305 78/150/306 88/147/307 87/149/308
f 78/150/309 79/151/310 89/144/311 88/147/312
f 79/69/313 80/68/314 90/71/315 89/72/316
f 80/68/317 71/75/318 81/76/319 90/71/320
f 2/2/321 1/1/322 91/5/323
f 3/6/324 2/2/325 91/5/326
f 4/12/327 3/6/328 91/5/329
f 5/17/330 4/12/331 91/5/332
f 6/22/333 5/17/334 91/5/335
f 7/27/336 6/22/337 91/5/338
f 8/20/339 7/27/340 91/5/341
f 9/15/342 8/20/343 91/5/344
f 10/10/345 9/15/346 91/5/347
f 1/1/348 10/10/349 91/5/350
f 81/133/351 82/132/352 92/138/353
f 82/132/354 83/137/355 92/138/356
f 83/137/357 84/140/358 92/138/359
f 84/140/360 85/143/361 92/138/362
f 85/143/363 86/146/364 92/138/365
f 86/146/366 87/149/367 92/138/368
f 87/149/369 88/147/370 92/138/371
f 88/147/372 89/144/373 92/138/374
f 89/144/375 90/141/376 92/138/377
f 90/141/378 81/133/379 92/138/380
