# This file uses centimeters as units for non-parametric coordinates.

mtllib Nave.mtl
g default
v 4.013168 0.293787 -5.991653
v 2.777199 0.006502 -5.991653
v 0.991172 0.872195 -5.991653
v -0.991170 0.872195 -5.991653
v -2.777197 0.006501 -5.991653
v -4.013167 0.293787 -5.991653
v -4.454280 0.183050 -5.991653
v -4.013168 0.072312 -5.991653
v -2.777199 -0.853922 -5.991653
v -0.991171 -1.296585 -5.991653
v 0.991170 -1.296585 -5.991653
v 2.777198 -0.853922 -5.991653
v 4.013168 0.072312 -5.991653
v 4.454280 0.183050 -5.991653
v 6.718779 -0.006810 -4.791653
v 2.668851 0.525301 -4.791653
v 0.655986 1.115947 -4.791653
v -0.655983 1.115948 -4.791653
v -2.668849 0.525300 -4.791653
v -6.718778 -0.006810 -4.791653
v -7.457280 -0.391481 -4.791653
v -6.718779 -0.519369 -4.791653
v -4.649541 -0.272335 -4.791653
v -0.855700 -1.902506 -4.791653
v 0.855697 -1.902506 -4.791653
v 4.649540 -0.272335 -4.791653
v 6.718779 -0.519369 -4.791653
v 7.457281 -0.391481 -4.791653
v 7.816882 0.032273 -2.586021
v 3.105043 0.595727 -2.586021
v 0.763200 1.339119 -2.586021
v -0.763196 1.339120 -2.586021
v -3.105041 0.595727 -2.586021
v -7.816882 0.032274 -2.586021
v -8.676088 -0.391481 -2.586021
v -7.816883 -0.558453 -2.586021
v -5.409453 -0.342762 -2.586021
v -0.995554 -2.125678 -2.586021
v 0.995551 -2.125678 -2.586021
v 5.409451 -0.342762 -2.586021
v 7.816882 -0.558453 -2.586021
v 8.676088 -0.391481 -2.586021
v 7.816882 0.032273 -0.080631
v 3.105043 0.595727 -0.080631
v 0.763200 1.339119 -0.080631
v -0.763196 1.339120 -0.080631
v -3.105041 0.595727 -0.080631
v -7.816882 0.032274 -0.080631
v -8.676088 -0.391481 -0.080631
v -7.816883 -0.558453 -0.080631
v -5.409453 -0.342762 -0.080631
v -0.995554 -2.125678 -0.080631
v 0.995551 -2.125678 -0.080631
v 5.409451 -0.342762 -0.080631
v 7.816882 -0.558453 -0.080631
v 8.676088 -0.391481 -0.080631
v 1.801938 0.104513 1.702519
v 1.246980 0.721027 1.702519
v 0.445042 1.063167 1.702519
v -0.445041 1.063167 1.702519
v -1.246979 0.721028 1.702519
v -1.801937 0.104514 1.702519
v -2.000000 -0.030992 1.702519
v -1.801938 -0.055230 1.702519
v -1.246980 -0.958929 1.702519
v -0.445042 -2.150265 1.702519
v 0.445042 -2.150265 1.702519
v 1.246979 -0.958929 1.702519
v 1.801938 -0.055230 1.702519
v 2.000000 -0.030992 1.702519
v 1.352944 0.630499 3.503333
v 0.936266 0.903443 3.503333
v 0.334150 1.184042 3.503333
v -0.334149 1.184042 3.503333
v -0.936266 0.903444 3.503333
v -1.352943 0.630500 3.503333
v -1.501654 0.000000 3.503333
v -1.352944 -0.630499 3.503333
v -0.936266 -1.136121 3.503333
v -0.334150 -1.416720 3.503333
v 0.334149 -1.416720 3.503333
v 0.936266 -1.136121 3.503333
v 1.352944 -0.630500 3.503333
v 1.501654 -0.000000 3.503333
v 1.512344 0.710180 4.703333
v 1.046574 0.839557 4.703333
v 0.373518 1.696359 4.703333
v -0.373518 1.696360 4.703333
v -1.046574 0.839557 4.703333
v -1.512343 0.710181 4.703333
v -1.678575 0.000000 4.703333
v -1.512344 -0.710180 4.703333
v -1.046574 -1.279701 4.703333
v -0.373518 -1.595762 4.703333
v 0.373518 -1.595762 4.703333
v 1.046574 -1.279701 4.703333
v 1.512344 -0.710181 4.703333
v 1.678575 -0.000000 4.703333
v 1.801938 0.656510 5.903333
v 1.246980 0.810495 5.903333
v 0.445042 1.629843 5.903333
v -0.445041 1.629843 5.903333
v -1.246979 0.810495 5.903333
v -1.801937 0.656511 5.903333
v -2.000000 0.000000 5.903333
v -1.801938 -0.867767 5.903333
v -1.246980 -1.563663 5.903333
v -0.445042 -1.660169 5.903333
v 0.445042 -1.660170 5.903333
v 1.246979 -1.563663 5.903333
v 1.801938 -0.867768 5.903333
v 2.000000 0.000000 5.903333
v 1.597063 0.595157 7.103333
v 1.105202 0.699941 7.103333
v 0.394442 1.491985 7.103333
v -0.394442 1.491986 7.103333
v -1.105202 0.699942 7.103333
v -1.597063 0.595158 7.103333
v -1.772606 0.000000 7.103333
v -1.597063 -0.806415 7.103333
v -1.105202 -1.453110 7.103333
v -0.394442 -1.631042 7.103333
v 0.394442 -1.631042 7.103333
v 1.105202 -1.453110 7.103333
v 1.597063 -0.806415 7.103333
v 1.772607 -0.000000 7.103333
v 1.318741 0.424045 8.677847
v 0.912597 0.391607 8.677847
v 0.325702 0.747452 8.677847
v -0.325702 0.747452 8.677847
v -0.912597 0.391607 8.677847
v -1.318741 0.424045 8.677847
v -1.463692 0.000000 8.677847
v -1.318741 -0.635302 8.677847
v -0.912597 -1.144775 8.677847
v -0.325702 -1.427511 8.677847
v 0.325702 -1.427511 8.677847
v 0.912597 -1.144775 8.677847
v 1.318741 -0.635302 8.677847
v 1.463692 -0.000000 8.677847
v 0.814027 0.047906 10.470697
v 0.563325 0.204238 10.470697
v 0.201048 0.290996 10.470697
v -0.201048 0.290996 10.470697
v -0.563324 0.204238 10.470697
v -0.814027 0.047907 10.470697
v -0.903502 -0.147037 10.470697
v -0.814027 -0.341980 10.470697
v -0.563324 -0.498313 10.470697
v -0.201048 -0.585071 10.470697
v 0.201048 -0.585071 10.470697
v 0.563324 -0.498313 10.470697
v 0.814027 -0.341980 10.470697
v 0.903502 -0.147037 10.470697
v 0.032787 -0.717015 -5.991653
v -0.010746 -0.220067 10.779885
vt 0.640776 0.088456
vt 0.597420 0.034089
vt 0.534769 0.003918
vt 0.465231 0.003918
vt 0.402580 0.034089
vt 0.359224 0.088456
vt 0.343750 0.156250
vt 0.359224 0.224044
vt 0.402580 0.278411
vt 0.465231 0.308582
vt 0.534769 0.308582
vt 0.597420 0.278411
vt 0.640776 0.224044
vt 0.656250 0.156250
vt 0.375000 0.312500
vt 0.392857 0.312500
vt 0.410714 0.312500
vt 0.428571 0.312500
vt 0.446429 0.312500
vt 0.464286 0.312500
vt 0.482143 0.312500
vt 0.500000 0.312500
vt 0.517857 0.312500
vt 0.535714 0.312500
vt 0.553571 0.312500
vt 0.571428 0.312500
vt 0.589286 0.312500
vt 0.607143 0.312500
vt 0.625000 0.312500
vt 0.375000 0.350094
vt 0.392857 0.350094
vt 0.410714 0.350094
vt 0.428571 0.350094
vt 0.446429 0.350094
vt 0.464286 0.350094
vt 0.482143 0.350094
vt 0.500000 0.350094
vt 0.517857 0.350094
vt 0.535714 0.350094
vt 0.553571 0.350094
vt 0.571428 0.350094
vt 0.589286 0.350094
vt 0.607143 0.350094
vt 0.625000 0.350094
vt 0.375000 0.387688
vt 0.392857 0.387688
vt 0.410714 0.387688
vt 0.428571 0.387688
vt 0.446429 0.387688
vt 0.464286 0.387688
vt 0.482143 0.387688
vt 0.500000 0.387688
vt 0.517857 0.387688
vt 0.535714 0.387688
vt 0.553571 0.387688
vt 0.571428 0.387688
vt 0.589286 0.387688
vt 0.607143 0.387688
vt 0.625000 0.387688
vt 0.375000 0.425282
vt 0.392857 0.425282
vt 0.410714 0.425282
vt 0.428571 0.425282
vt 0.446429 0.425282
vt 0.464286 0.425282
vt 0.482143 0.425282
vt 0.500000 0.425282
vt 0.517857 0.425282
vt 0.535714 0.425282
vt 0.553571 0.425282
vt 0.571428 0.425282
vt 0.589286 0.425282
vt 0.607143 0.425282
vt 0.625000 0.425282
vt 0.375000 0.462876
vt 0.392857 0.462876
vt 0.410714 0.462876
vt 0.428571 0.462876
vt 0.446429 0.462876
vt 0.464286 0.462876
vt 0.482143 0.462876
vt 0.500000 0.462876
vt 0.517857 0.462876
vt 0.535714 0.462876
vt 0.553571 0.462876
vt 0.571428 0.462876
vt 0.589286 0.462876
vt 0.607143 0.462876
vt 0.625000 0.462876
vt 0.375000 0.500470
vt 0.392857 0.500470
vt 0.410714 0.500470
vt 0.428571 0.500470
vt 0.446429 0.500470
vt 0.464286 0.500470
vt 0.482143 0.500470
vt 0.500000 0.500470
vt 0.517857 0.500470
vt 0.535714 0.500470
vt 0.553571 0.500470
vt 0.571428 0.500470
vt 0.589286 0.500470
vt 0.607143 0.500470
vt 0.625000 0.500470
vt 0.375000 0.538064
vt 0.392857 0.538064
vt 0.410714 0.538064
vt 0.428571 0.538064
vt 0.446429 0.538064
vt 0.464286 0.538064
vt 0.482143 0.538064
vt 0.500000 0.538064
vt 0.517857 0.538064
vt 0.535714 0.538064
vt 0.553571 0.538064
vt 0.571428 0.538064
vt 0.589286 0.538064
vt 0.607143 0.538064
vt 0.625000 0.538064
vt 0.375000 0.575658
vt 0.392857 0.575658
vt 0.410714 0.575658
vt 0.428571 0.575658
vt 0.446429 0.575658
vt 0.464286 0.575658
vt 0.482143 0.575658
vt 0.500000 0.575658
vt 0.517857 0.575658
vt 0.535714 0.575658
vt 0.553571 0.575658
vt 0.571428 0.575658
vt 0.589286 0.575658
vt 0.607143 0.575658
vt 0.625000 0.575658
vt 0.375000 0.613252
vt 0.392857 0.613252
vt 0.410714 0.613252
vt 0.428571 0.613252
vt 0.446429 0.613252
vt 0.464286 0.613252
vt 0.482143 0.613252
vt 0.500000 0.613252
vt 0.517857 0.613252
vt 0.535714 0.613252
vt 0.553571 0.613252
vt 0.571428 0.613252
vt 0.589286 0.613252
vt 0.607143 0.613252
vt 0.625000 0.613252
vt 0.375000 0.650846
vt 0.392857 0.650846
vt 0.410714 0.650846
vt 0.428571 0.650846
vt 0.446429 0.650846
vt 0.464286 0.650846
vt 0.482143 0.650846
vt 0.500000 0.650846
vt 0.517857 0.650846
vt 0.535714 0.650846
vt 0.553571 0.650846
vt 0.571428 0.650846
vt 0.589286 0.650846
vt 0.607143 0.650846
vt 0.625000 0.650846
vt 0.375000 0.688440
vt 0.392857 0.688440
vt 0.410714 0.688440
vt 0.428571 0.688440
vt 0.446429 0.688440
vt 0.464286 0.688440
vt 0.482143 0.688440
vt 0.500000 0.688440
vt 0.517857 0.688440
vt 0.535714 0.688440
vt 0.553571 0.688440
vt 0.571428 0.688440
vt 0.589286 0.688440
vt 0.607143 0.688440
vt 0.625000 0.688440
vt 0.640776 0.775956
vt 0.597420 0.721589
vt 0.534769 0.691418
vt 0.465231 0.691418
vt 0.402580 0.721589
vt 0.359224 0.775956
vt 0.343750 0.843750
vt 0.359224 0.911544
vt 0.402580 0.965911
vt 0.465231 0.996082
vt 0.534769 0.996082
vt 0.597420 0.965911
vt 0.640776 0.911544
vt 0.656250 0.843750
vt 0.500000 0.150000
vt 0.500000 0.837500
vn 0.133478 0.958275 -0.252770
vn 0.180912 0.967047 -0.179140
vn 0.195021 0.972835 -0.124739
vn 0.201455 0.961879 -0.184944
vn 0.170712 0.961619 -0.214816
vn 0.157563 0.976206 -0.148984
vn -0.170712 0.961619 -0.214816
vn -0.157563 0.976206 -0.148984
vn -0.180911 0.967047 -0.179140
vn -0.195021 0.972835 -0.124739
vn -0.133478 0.958275 -0.252769
vn -0.201454 0.961879 -0.184944
vn -0.386797 0.228448 -0.893420
vn -0.671939 -0.305659 -0.674589
vn -0.174912 -0.855244 -0.487815
vn -0.068519 -0.984703 -0.160201
vn -0.273507 -0.913456 -0.301316
vn -0.172772 -0.974376 -0.144021
vn -0.210271 -0.918190 -0.335729
vn -0.194316 -0.960588 -0.198778
vn 0.210271 -0.918190 -0.335729
vn 0.194316 -0.960588 -0.198778
vn 0.273507 -0.913456 -0.301316
vn 0.172772 -0.974376 -0.144021
vn 0.174912 -0.855244 -0.487814
vn 0.068519 -0.984703 -0.160201
vn 0.386797 0.228445 -0.893421
vn 0.671938 -0.305661 -0.674589
vn 0.208806 0.977166 -0.039335
vn 0.269952 0.961111 -0.058235
vn 0.150746 0.987463 -0.046827
vn -0.150745 0.987463 -0.046827
vn -0.208806 0.977166 -0.039335
vn -0.269952 0.961111 -0.058235
vn -0.909931 -0.364659 -0.197608
vn -0.040299 -0.999019 -0.018337
vn -0.130711 -0.991124 -0.024263
vn -0.187937 -0.980673 -0.054405
vn 0.187937 -0.980673 -0.054405
vn 0.130711 -0.991124 -0.024263
vn 0.040299 -0.999019 -0.018337
vn 0.909931 -0.364659 -0.197607
vn 0.233991 0.967139 0.099450
vn 0.280707 0.950867 0.130598
vn 0.149470 0.985808 0.076425
vn -0.149470 0.985808 0.076425
vn -0.233991 0.967139 0.099450
vn -0.280707 0.950867 0.130598
vn -0.886822 -0.217269 0.407849
vn -0.079349 -0.987982 0.132650
vn -0.198672 -0.971890 0.126333
vn -0.163751 -0.985499 0.044459
vn 0.163751 -0.985499 0.044459
vn 0.198672 -0.971890 0.126333
vn 0.079349 -0.987982 0.132650
vn 0.886822 -0.217269 0.407849
vn 0.465930 0.880180 0.090508
vn 0.682259 0.700452 0.209500
vn 0.185408 0.981376 0.050256
vn -0.185407 0.981376 0.050256
vn -0.465930 0.880181 0.090507
vn -0.682259 0.700452 0.209500
vn -0.917121 -0.097514 0.386496
vn -0.732040 -0.637892 0.239188
vn -0.676993 -0.699675 0.228332
vn -0.282596 -0.940315 0.189599
vn 0.282596 -0.940315 0.189599
vn 0.676993 -0.699675 0.228332
vn 0.732040 -0.637892 0.239188
vn 0.917121 -0.097514 0.386497
vn 0.536970 0.841663 -0.057158
vn 0.762954 0.646326 -0.012796
vn 0.298125 0.945708 -0.129454
vn -0.298124 0.945708 -0.129454
vn -0.536970 0.841663 -0.057158
vn -0.762954 0.646326 -0.012796
vn -0.999793 -0.019090 0.006980
vn -0.873190 -0.487114 -0.016092
vn -0.708477 -0.705595 -0.013987
vn -0.331410 -0.943174 0.024276
vn 0.331410 -0.943174 0.024276
vn 0.708477 -0.705595 -0.013987
vn 0.873190 -0.487114 -0.016092
vn 0.999793 -0.019091 0.006980
vn 0.523424 0.849048 -0.071728
vn 0.668649 0.735561 -0.108896
vn 0.426586 0.898528 -0.103302
vn -0.426585 0.898529 -0.103302
vn -0.523424 0.849048 -0.071727
vn -0.668648 0.735562 -0.108896
vn -0.981520 0.010158 -0.191089
vn -0.880822 -0.430506 -0.197019
vn -0.559740 -0.808658 -0.181006
vn -0.162223 -0.978685 -0.125930
vn 0.162223 -0.978685 -0.125930
vn 0.559739 -0.808659 -0.181006
vn 0.880822 -0.430506 -0.197019
vn 0.981520 0.010158 -0.191089
vn 0.511477 0.858655 0.033227
vn 0.618856 0.785264 0.019427
vn 0.399971 0.914535 0.060405
vn -0.399971 0.914535 0.060405
vn -0.511476 0.858655 0.033227
vn -0.618856 0.785264 0.019427
vn -0.999433 0.030748 -0.013714
vn -0.900722 -0.433975 -0.019129
vn -0.492025 -0.870062 -0.030050
vn -0.099623 -0.994765 -0.022733
vn 0.099623 -0.994765 -0.022733
vn 0.492025 -0.870062 -0.030050
vn 0.900722 -0.433975 -0.019129
vn 0.999433 0.030748 -0.013714
vn 0.422563 0.890989 0.166070
vn 0.612902 0.769045 0.181441
vn 0.389088 0.895073 0.217841
vn -0.389088 0.895073 0.217841
vn -0.422563 0.890989 0.166070
vn -0.612902 0.769045 0.181441
vn -0.981013 0.038521 0.190075
vn -0.888227 -0.419927 0.186318
vn -0.516360 -0.842353 0.154317
vn -0.116274 -0.988796 0.093608
vn 0.116274 -0.988796 0.093609
vn 0.516360 -0.842353 0.154317
vn 0.888227 -0.419927 0.186318
vn 0.981014 0.038521 0.190075
vn 0.308702 0.926453 0.215378
vn 0.566247 0.788150 0.241212
vn 0.292016 0.910441 0.292956
vn -0.292016 0.910441 0.292956
vn -0.308702 0.926453 0.215378
vn -0.566246 0.788151 0.241212
vn -0.968524 0.036365 0.246248
vn -0.864912 -0.434122 0.251924
vn -0.550230 -0.790781 0.268165
vn -0.162521 -0.955796 0.245031
vn 0.162521 -0.955796 0.245031
vn 0.550230 -0.790781 0.268165
vn 0.864912 -0.434122 0.251924
vn 0.968524 0.036365 0.246248
vn 0.296410 0.932702 0.205446
vn 0.542401 0.793172 0.276911
vn 0.221069 0.946610 0.234646
vn -0.221068 0.946610 0.234646
vn -0.296410 0.932702 0.205446
vn -0.542401 0.793172 0.276911
vn -0.949473 0.028571 0.312546
vn -0.828232 -0.462382 0.316597
vn -0.524630 -0.766262 0.370951
vn -0.173390 -0.891902 0.417668
vn 0.173389 -0.891902 0.417668
vn 0.524630 -0.766263 0.370951
vn 0.828232 -0.462382 0.316597
vn 0.949473 0.028571 0.312546
vn 0.000000 0.000000 -1.000000
vn 0.000000 -0.000000 -1.000000
vn 0.000000 -0.000000 -1.000000
vn 0.000000 -0.000000 -1.000000
vn 0.000000 -0.000000 -1.000000
vn 0.000000 -0.000000 -1.000000
vn 0.000000 -0.000000 -1.000000
vn 0.000000 -0.000000 -1.000000
vn 0.000000 -0.000000 -1.000000
vn 0.000000 -0.000000 -1.000000
vn 0.000000 -0.000000 -1.000000
vn 0.000000 0.000000 -1.000000
vn 0.000000 -0.000000 -1.000000
vn 0.000000 -0.000000 -1.000000
vn 0.000000 -0.000000 -1.000000
vn 0.266322 0.253339 0.929996
vn 0.168577 0.421281 0.891125
vn -0.002172 -0.059215 0.998243
vn 0.056989 0.499396 0.864497
vn -0.057449 0.501030 0.863521
vn -0.170578 0.425478 0.888747
vn -0.271105 0.257459 0.927479
vn -0.327665 -0.005624 0.944777
vn -0.302889 -0.299135 0.904863
vn -0.203511 -0.518624 0.830429
vn -0.070293 -0.623167 0.778923
vn 0.069591 -0.620970 0.780739
vn 0.200872 -0.512958 0.834580
vn 0.297158 -0.293768 0.908514
vn 0.320745 -0.005376 0.947150
s 1
g pCylinder1
usemtl initialShadingGroup
f 1/15/1 2/16/2 16/31/3 15/30/4
f 2/16/2 3/17/5 17/32/6 16/31/3
f 3/17/5 4/18/7 18/33/8 17/32/6
f 4/18/7 5/19/9 19/34/10 18/33/8
f 5/19/9 6/20/11 20/35/12 19/34/10
f 6/20/11 7/21/13 21/36/14 20/35/12
f 7/21/13 8/22/15 22/37/16 21/36/14
f 8/22/15 9/23/17 23/38/18 22/37/16
f 9/23/17 10/24/19 24/39/20 23/38/18
f 10/24/19 11/25/21 25/40/22 24/39/20
f 11/25/21 12/26/23 26/41/24 25/40/22
f 12/26/23 13/27/25 27/42/26 26/41/24
f 13/27/25 14/28/27 28/43/28 27/42/26
f 14/28/27 1/29/1 15/44/4 28/43/28
f 15/30/4 16/31/3 30/46/29 29/45/30
f 16/31/3 17/32/6 31/47/31 30/46/29
f 17/32/6 18/33/8 32/48/32 31/47/31
f 18/33/8 19/34/10 33/49/33 32/48/32
f 19/34/10 20/35/12 34/50/34 33/49/33
f 20/35/12 21/36/14 35/51/35 34/50/34
f 21/36/14 22/37/16 36/52/36 35/51/35
f 22/37/16 23/38/18 37/53/37 36/52/36
f 23/38/18 24/39/20 38/54/38 37/53/37
f 24/39/20 25/40/22 39/55/39 38/54/38
f 25/40/22 26/41/24 40/56/40 39/55/39
f 26/41/24 27/42/26 41/57/41 40/56/40
f 27/42/26 28/43/28 42/58/42 41/57/41
f 28/43/28 15/44/4 29/59/30 42/58/42
f 29/45/30 30/46/29 44/61/43 43/60/44
f 30/46/29 31/47/31 45/62/45 44/61/43
f 31/47/31 32/48/32 46/63/46 45/62/45
f 32/48/32 33/49/33 47/64/47 46/63/46
f 33/49/33 34/50/34 48/65/48 47/64/47
f 34/50/34 35/51/35 49/66/49 48/65/48
f 35/51/35 36/52/36 50/67/50 49/66/49
f 36/52/36 37/53/37 51/68/51 50/67/50
f 37/53/37 38/54/38 52/69/52 51/68/51
f 38/54/38 39/55/39 53/70/53 52/69/52
f 39/55/39 40/56/40 54/71/54 53/70/53
f 40/56/40 41/57/41 55/72/55 54/71/54
f 41/57/41 42/58/42 56/73/56 55/72/55
f 42/58/42 29/59/30 43/74/44 56/73/56
f 43/60/44 44/61/43 58/76/57 57/75/58
f 44/61/43 45/62/45 59/77/59 58/76/57
f 45/62/45 46/63/46 60/78/60 59/77/59
f 46/63/46 47/64/47 61/79/61 60/78/60
f 47/64/47 48/65/48 62/80/62 61/79/61
f 48/65/48 49/66/49 63/81/63 62/80/62
f 49/66/49 50/67/50 64/82/64 63/81/63
f 50/67/50 51/68/51 65/83/65 64/82/64
f 51/68/51 52/69/52 66/84/66 65/83/65
f 52/69/52 53/70/53 67/85/67 66/84/66
f 53/70/53 54/71/54 68/86/68 67/85/67
f 54/71/54 55/72/55 69/87/69 68/86/68
f 55/72/55 56/73/56 70/88/70 69/87/69
f 56/73/56 43/74/44 57/89/58 70/88/70
f 57/75/58 58/76/57 72/91/71 71/90/72
f 58/76/57 59/77/59 73/92/73 72/91/71
f 59/77/59 60/78/60 74/93/74 73/92/73
f 60/78/60 61/79/61 75/94/75 74/93/74
f 61/79/61 62/80/62 76/95/76 75/94/75
f 62/80/62 63/81/63 77/96/77 76/95/76
f 63/81/63 64/82/64 78/97/78 77/96/77
f 64/82/64 65/83/65 79/98/79 78/97/78
f 65/83/65 66/84/66 80/99/80 79/98/79
f 66/84/66 67/85/67 81/100/81 80/99/80
f 67/85/67 68/86/68 82/101/82 81/100/81
f 68/86/68 69/87/69 83/102/83 82/101/82
f 69/87/69 70/88/70 84/103/84 83/102/83
f 70/88/70 57/89/58 71/104/72 84/103/84
f 71/90/72 72/91/71 86/106/85 85/105/86
f 72/91/71 73/92/73 87/107/87 86/106/85
f 73/92/73 74/93/74 88/108/88 87/107/87
f 74/93/74 75/94/75 89/109/89 88/108/88
f 75/94/75 76/95/76 90/110/90 89/109/89
f 76/95/76 77/96/77 91/111/91 90/110/90
f 77/96/77 78/97/78 92/112/92 91/111/91
f 78/97/78 79/98/79 93/113/93 92/112/92
f 79/98/79 80/99/80 94/114/94 93/113/93
f 80/99/80 81/100/81 95/115/95 94/114/94
f 81/100/81 82/101/82 96/116/96 95/115/95
f 82/101/82 83/102/83 97/117/97 96/116/96
f 83/102/83 84/103/84 98/118/98 97/117/97
f 84/103/84 71/104/72 85/119/86 98/118/98
f 85/105/86 86/106/85 100/121/99 99/120/100
f 86/106/85 87/107/87 101/122/101 100/121/99
f 87/107/87 88/108/88 102/123/102 101/122/101
f 88/108/88 89/109/89 103/124/103 102/123/102
f 89/109/89 90/110/90 104/125/104 103/124/103
f 90/110/90 91/111/91 105/126/105 104/125/104
f 91/111/91 92/112/92 106/127/106 105/126/105
f 92/112/92 93/113/93 107/128/107 106/127/106
f 93/113/93 94/114/94 108/129/108 107/128/107
f 94/114/94 95/115/95 109/130/109 108/129/108
f 95/115/95 96/116/96 110/131/110 109/130/109
f 96/116/96 97/117/97 111/132/111 110/131/110
f 97/117/97 98/118/98 112/133/112 111/132/111
f 98/118/98 85/119/86 99/134/100 112/133/112
f 99/120/100 100/121/99 114/136/113 113/135/114
f 100/121/99 101/122/101 115/137/115 114/136/113
f 101/122/101 102/123/102 116/138/116 115/137/115
f 102/123/102 103/124/103 117/139/117 116/138/116
f 103/124/103 104/125/104 118/140/118 117/139/117
f 104/125/104 105/126/105 119/141/119 118/140/118
f 105/126/105 106/127/106 120/142/120 119/141/119
f 106/127/106 107/128/107 121/143/121 120/142/120
f 107/128/107 108/129/108 122/144/122 121/143/121
f 108/129/108 109/130/109 123/145/123 122/144/122
f 109/130/109 110/131/110 124/146/124 123/145/123
f 110/131/110 111/132/111 125/147/125 124/146/124
f 111/132/111 112/133/112 126/148/126 125/147/125
f 112/133/112 99/134/100 113/149/114 126/148/126
f 113/135/114 114/136/113 128/151/127 127/150/128
f 114/136/113 115/137/115 129/152/129 128/151/127
f 115/137/115 116/138/116 130/153/130 129/152/129
f 116/138/116 117/139/117 131/154/131 130/153/130
f 117/139/117 118/140/118 132/155/132 131/154/131
f 118/140/118 119/141/119 133/156/133 132/155/132
f 119/141/119 120/142/120 134/157/134 133/156/133
f 120/142/120 121/143/121 135/158/135 134/157/134
f 121/143/121 122/144/122 136/159/136 135/158/135
f 122/144/122 123/145/123 137/160/137 136/159/136
f 123/145/123 124/146/124 138/161/138 137/160/137
f 124/146/124 125/147/125 139/162/139 138/161/138
f 125/147/125 126/148/126 140/163/140 139/162/139
f 126/148/126 113/149/114 127/164/128 140/163/140
f 127/150/128 128/151/127 142/166/141 141/165/142
f 128/151/127 129/152/129 143/167/143 142/166/141
f 129/152/129 130/153/130 144/168/144 143/167/143
f 130/153/130 131/154/131 145/169/145 144/168/144
f 131/154/131 132/155/132 146/170/146 145/169/145
f 132/155/132 133/156/133 147/171/147 146/170/146
f 133/156/133 134/157/134 148/172/148 147/171/147
f 134/157/134 135/158/135 149/173/149 148/172/148
f 135/158/135 136/159/136 150/174/150 149/173/149
f 136/159/136 137/160/137 151/175/151 150/174/150
f 137/160/137 138/161/138 152/176/152 151/175/151
f 138/161/138 139/162/139 153/177/153 152/176/152
f 139/162/139 140/163/140 154/178/154 153/177/153
f 140/163/140 127/164/128 141/179/142 154/178/154
s 2
f 2/2/155 1/1/156 155/194/157
f 3/3/158 2/2/155 155/194/157
f 4/4/159 3/3/158 155/194/157
f 5/5/160 4/4/159 155/194/157
f 6/6/161 5/5/160 155/194/157
f 7/7/162 6/6/161 155/194/157
f 8/8/163 7/7/162 155/194/157
f 9/9/164 8/8/163 155/194/157
f 10/10/165 9/9/164 155/194/157
f 11/11/166 10/10/165 155/194/157
f 12/12/167 11/11/166 155/194/157
f 13/13/168 12/12/167 155/194/157
f 14/14/169 13/13/168 155/194/157
f 1/1/156 14/14/169 155/194/157
s 3
f 141/192/170 142/191/171 156/195/172
f 142/191/171 143/190/173 156/195/172
f 143/190/173 144/189/174 156/195/172
f 144/189/174 145/188/175 156/195/172
f 145/188/175 146/187/176 156/195/172
f 146/187/176 147/186/177 156/195/172
f 147/186/177 148/185/178 156/195/172
f 148/185/178 149/184/179 156/195/172
f 149/184/179 150/183/180 156/195/172
f 150/183/180 151/182/181 156/195/172
f 151/182/181 152/181/182 156/195/172
f 152/181/182 153/180/183 156/195/172
f 153/180/183 154/193/184 156/195/172
f 154/193/184 141/192/170 156/195/172
